<svg width="1920" height="20" viewBox="0 0 1920 20" fill="rgba(239,239,239,1)" xmlns="http://www.w3.org/2000/svg">
<path fill-rule="evenodd" clip-rule="evenodd" d="M1500.83 2.33903C1515.69 2.25647 1530.52 2.16408 1545.43 2.09922C1550.29 2.07759 1555.58 2.09135 1560.3 2.14443C1582.86 2.39603 1605.51 2.64371 1627.79 2.93659C1656.11 3.31007 1684.67 3.46929 1714.17 3.2511C1719.83 3.20982 1725.78 3.22161 1731.49 3.20982C1734.84 3.3828 1737.2 3.58526 1741.07 3.68354C1745.13 3.78576 1750.65 3.78576 1755.56 3.829C1770.29 4.05309 1784.87 4.287 1799.64 4.50323C1807.05 4.61134 1813.99 4.57399 1821.26 4.27717C1816.26 4.19068 1812.72 4.08847 1808.99 4.07078C1791.05 3.98429 1773.02 3.91942 1755.04 3.84473C1754.66 3.74251 1754.33 3.63833 1753.86 3.49877C1756.03 3.47911 1758.34 3.43194 1760.37 3.4457C1789.31 3.65013 1818.33 3.84473 1847.12 4.08257C1861.76 4.20444 1876.91 4.29093 1889.32 4.71552C1893.62 4.86294 1899.94 4.90619 1905.27 5.0025C1909.71 5.0831 1914.01 5.17548 1918.58 5.2659C1916.18 5.42119 1914.48 5.5293 1912.64 5.64724C1914.95 5.82219 1917.36 6.00303 1919.95 6.19763C1915.66 6.4512 1911.46 6.69887 1907.21 6.94851C1905.65 6.95834 1903.9 6.98783 1902.39 6.97407C1877.05 6.73229 1851.61 6.50624 1826.45 6.23498C1811.02 6.0679 1796.01 5.92244 1779.68 5.91851C1759.71 5.91261 1739.75 5.73177 1719.83 5.61186C1699.91 5.49196 1680.09 5.34846 1660.17 5.22266C1639.45 5.09096 1618.68 4.96319 1597.92 4.84722C1570.49 4.69193 1542.98 4.54844 1515.51 4.39904C1513.71 4.33025 1511.54 4.27128 1510.22 4.18675C1501.96 3.66978 1501.82 3.63637 1490.73 3.79165C1484.78 3.87421 1479.68 3.87618 1473.97 3.81721C1471 3.78576 1467.46 3.75431 1465.9 4.01181C1482.47 4.17496 1499.36 4.25555 1516.07 4.37742C1498.61 4.7568 1479.54 4.91995 1460.38 4.84722C1417.85 4.68407 1375.33 4.51502 1333.46 4.18282C1331.38 3.92139 1337.52 4.01967 1339.6 3.85062C1327.47 3.76414 1315.67 3.6973 1303.73 3.66978C1301.27 3.66389 1298.44 3.66978 1296.41 3.71696C1269.88 4.30666 1241.42 4.27324 1213.2 4.09633C1181.53 3.89583 1149.86 3.85259 1118 3.8408C1083.64 3.82704 1049.32 3.74841 1015.01 3.75038C989.9 3.75038 964.791 3.8408 939.681 3.88011C931.327 3.89387 922.972 3.88011 914.618 3.88011C911.267 3.88011 907.633 3.83293 904.706 3.87421C887.432 4.12385 869.874 4.01377 852.363 3.97053C843.914 3.94891 835.796 3.93122 827.772 4.08454C823.1 4.17496 817.955 4.1671 813.896 3.98822C819.607 3.91156 826.876 3.95284 830.368 3.64423C821.715 3.54726 816.445 3.67044 814.557 4.01377C810.734 4.23983 806.958 4.46391 803.135 4.68996C743.947 5.09686 684.43 5.50375 624.959 5.91851C618.399 5.96372 612.121 6.06593 605.561 6.11114C590.551 6.21139 575.967 6.20156 561.383 5.71604C567.754 5.48999 572.521 5.32094 579.318 5.07917C539.01 5.38188 501.062 5.6669 463.115 5.95585C450.749 6.0502 438.477 6.18584 426.016 6.24874C416.152 6.29788 406.051 6.26053 396.045 6.26839C392.836 6.27036 388.257 6.24874 386.653 6.32343C377.543 6.76178 365.649 6.71657 354.038 6.67922C326.049 6.59076 298.768 6.7775 271.535 6.99962C260.018 7.09397 248.738 7.23943 237.316 7.35148C228.301 7.43993 219.663 7.47531 210.365 7.30037C202.2 7.14705 192.713 7.1156 182.471 7.01731C176.476 7.55591 159.485 7.43207 150.611 7.83306C140.652 8.28517 126.634 8.22227 114.787 8.4208C103.177 8.61737 90.8105 8.73727 78.6804 8.87094C66.3143 9.0046 54.2314 9.28373 38.703 9.07537C41.2518 8.83162 42.9037 8.64489 45.1221 8.46994C47.1988 8.30876 47.5764 8.17313 46.3492 7.98246C42.3373 7.36917 45.2637 7.03697 58.1961 6.80699C70.4206 6.5888 83.4003 6.38633 96.4743 6.31557C134.139 6.11114 170.246 5.65511 206.684 5.25018C216.359 5.14207 225.799 4.99071 235.522 4.8885C268.844 4.54057 302.072 4.16317 335.725 3.87814C375.042 3.54595 414.217 3.16854 454.147 2.97394C462.407 2.93266 470.666 2.86583 478.737 2.78327C495.729 2.61029 512.39 2.41372 530.467 2.47662C543.825 2.5238 557.323 2.38817 569.595 2.14246C585.595 1.82206 601.643 1.63139 619.862 1.59404C641.479 1.54883 662.86 1.29526 684.43 1.16552C703.498 1.05152 722.755 0.982717 741.918 0.890331C762.733 0.790082 783.547 0.680004 804.362 0.587618C814.368 0.542408 824.421 0.526682 834.427 0.503094C840.28 0.489335 846.558 0.532579 851.938 0.45985C871.62 0.200382 891.821 0.261317 911.881 0.227901C937.887 0.186622 963.847 0.107995 989.853 0.0785105C1004.06 0.0627852 1018.27 0.119789 1032.52 0.131583C1039.18 0.13748 1045.93 0.135515 1052.53 0.0962015C1082.6 -0.0846398 1112.62 0.0863732 1148.63 0.0156092C1138.72 0.312425 1134.05 0.503094 1127.91 0.583687C1122.48 0.652485 1116.35 0.717352 1112.57 0.420536C1108.94 0.135515 1102.85 0.17876 1097.28 0.284905C1089.91 0.424468 1082.93 0.595481 1073.21 0.809738C1084.49 0.809738 1092.79 0.801876 1101.05 0.811704C1107.71 0.821532 1114.98 0.794013 1120.92 0.890331C1135.46 1.12425 1150.71 1.07903 1165.62 1.14783C1172.75 1.18125 1181.39 1.138 1187.52 0.996477C1209.28 0.489335 1231.42 0.68197 1253.74 0.833326C1257.85 0.860846 1261.95 0.911953 1265.87 0.970923C1295.42 1.41713 1326.19 1.55276 1357.3 1.63925C1379.05 1.70019 1400.67 1.82992 1422.38 1.91641C1441.55 1.99307 1460.8 2.03631 1479.97 2.12673C1487.23 2.16212 1494.31 2.28792 1501.39 2.37048C1498.75 2.36065 1496.2 2.35082 1493.61 2.34099C1493.7 2.38227 1493.84 2.42552 1493.94 2.4668C1496.3 2.42748 1498.61 2.38817 1500.97 2.34886L1500.83 2.33903ZM1840.23 5.96765H1853.17C1853.07 5.93423 1853.02 5.89885 1852.93 5.86543C1848.49 5.90475 1844.1 5.94406 1839.67 5.98337C1837.4 5.83791 1834.9 5.71211 1830.18 5.71604C1825.32 5.72194 1820.46 5.72194 1815.6 5.7239C1813.14 5.64135 1810.97 5.53323 1808.19 5.4782C1798.51 5.28949 1788.65 5.12044 1780.24 4.96909C1770.95 5.02216 1762.83 5.09293 1754.61 5.10865C1748.48 5.12044 1743.33 5.0143 1742.01 4.70962C1741.73 4.64475 1738.66 4.60151 1737.15 4.5563C1733.56 4.71748 1730.69 4.84525 1727.52 4.98678C1756.83 5.40154 1786 5.67083 1816.35 5.70228C1824.28 5.7927 1832.21 5.88509 1840.33 5.96961L1840.23 5.96765ZM1025.39 1.0181C1026.53 0.841189 1027.52 0.685901 1028.46 0.538476C1025.82 0.487369 1024.36 0.43233 1022.94 0.434296C999.718 0.477541 976.307 0.263283 953.227 0.530614C950.159 0.565996 946.43 0.562064 943.362 0.524717C928.919 0.345841 915.987 0.624966 901.591 0.68197C903.055 0.839223 903.715 0.937507 904.895 1.024C906.028 1.10655 907.774 1.17535 909.285 1.25005C921.509 0.837258 921.556 0.811704 935.055 0.843155C960.779 0.902125 986.785 0.772391 1012.23 1.04758C1015.95 1.0869 1020.3 1.03186 1025.39 1.0181ZM152.075 6.49445C172.087 6.64777 183.509 6.49445 192.854 5.96961C177.326 5.97944 165.479 6.30181 152.075 6.49445ZM270.685 5.98927C255.817 6.01286 240.95 6.00696 223.061 6.48855C243.923 6.48658 257.658 6.27626 270.685 5.98927ZM540.426 4.55826C527.022 4.24769 515.316 4.4187 504.886 4.83542C516.732 4.74304 528.579 4.65065 540.426 4.55826ZM1120.83 2.9877C1143.63 3.17837 1143.63 3.17444 1154.86 2.9877H1120.83ZM1253.55 3.40245C1253.51 3.43587 1253.46 3.46928 1253.36 3.5027H1278.8C1278.8 3.46928 1278.8 3.43587 1278.85 3.40245H1253.55ZM1379.81 3.65209C1379.9 3.67371 1380 3.69534 1380.09 3.71696H1398.55C1398.55 3.69534 1398.55 3.67371 1398.55 3.65209H1379.76H1379.81ZM1327.23 2.67909C1327.14 2.65353 1327.09 2.62995 1326.99 2.60439C1323.78 2.59849 1320.62 2.5867 1317.41 2.58867C1314.96 2.58867 1312.55 2.60832 1310.14 2.62012C1310.24 2.63977 1310.33 2.65943 1310.47 2.67909H1327.23ZM855.809 1.32474C855.809 1.34047 855.903 1.35816 855.903 1.37388H867.183C867.136 1.3385 867.089 1.30312 867.042 1.26774C863.313 1.2874 859.537 1.30509 855.809 1.32474ZM883.231 0.835292C883.137 0.805807 883.042 0.776322 882.948 0.744871C881.579 0.756665 880.163 0.768459 878.794 0.78615C878.7 0.78615 879.03 0.843155 879.172 0.874605C880.494 0.860846 881.862 0.849052 883.184 0.835292H883.231ZM1838.82 4.49929L1840.75 4.54057L1841.04 4.47964L1838.82 4.49929ZM1201.3 3.28058C1199.7 3.2452 1198.8 3.22751 1197.95 3.20785C1197.95 3.23144 1197.86 3.27468 1198.05 3.27665C1198.76 3.28451 1199.56 3.28058 1201.3 3.28058ZM890.547 3.34938C890.547 3.31989 890.83 3.28058 890.5 3.26682C890.075 3.24716 889.131 3.24913 888.423 3.24127C888.423 3.28844 888.47 3.33562 888.517 3.3828C889.225 3.371 889.886 3.36117 890.547 3.34938ZM1095.25 3.00932C1094.54 3.00932 1093.83 3.00146 1093.22 3.00539C1093.08 3.00539 1093.08 3.0447 1092.98 3.06436C1093.69 3.06436 1094.4 3.07025 1095.01 3.06436C1095.15 3.06436 1095.15 3.02701 1095.25 3.00735V3.00932ZM356.54 6.15045C355.832 6.14063 355.171 6.12883 354.463 6.119C354.416 6.16225 354.321 6.20746 354.274 6.2507C354.982 6.24284 355.879 6.24481 356.398 6.22712C356.729 6.21532 356.54 6.17797 356.587 6.15045H356.54Z" fill="rgba(239,239,239,1)"/>
<path fill-rule="evenodd" clip-rule="evenodd" d="M530.75 10.8682C520.839 10.937 510.88 10.9743 505.405 11.4225C501.77 11.7193 494.596 11.8333 486.903 11.906C463.351 12.1301 440.034 12.4112 416.293 12.594C323.501 13.3095 231.227 14.141 138.906 14.9528C134.328 14.9941 129.514 14.9862 125.266 15C122.67 14.715 125.974 14.5931 129.797 14.5263C136.688 14.4064 143.532 14.3612 144.428 13.9307C144.948 13.6869 153.066 13.6496 159.154 13.6516C159.343 13.7715 159.579 13.8933 159.91 14.0919C169.727 13.9779 177.703 13.8992 185.397 13.7892C187.049 13.7656 189.22 13.5867 188.606 13.5533C186.954 13.455 183.509 13.3135 181.715 13.3331C173.833 13.4216 166.281 13.5611 158.588 13.683C154.859 13.626 150.895 13.5041 147.449 13.5277C136.877 13.5965 126.257 13.6909 116.062 13.8265C97.9375 14.0683 80.5212 14.4162 62.1136 14.5892C42.8565 14.77 22.7498 14.7975 3.02073 14.8919L3.58712 14.9135C-0.42478 14.6678 -1.46315 14.4044 2.50154 14.1508C6.46624 13.8973 10.1005 13.5454 15.906 13.4491C28.8385 13.2348 28.1305 12.7139 33.8415 12.3444C33.9831 12.3346 33.1336 12.2854 32.5672 12.2717C31.9536 12.2579 31.0096 12.2638 30.2544 12.2599L30.6792 12.2638C32.5672 12.0181 35.4935 11.794 42.6677 11.8353C53.4762 11.8982 63.8128 11.906 74.2437 11.7272C77.2644 11.6761 81.7483 11.7704 86.7042 11.8078C75.6597 12.2127 60.5561 12.1852 51.4939 12.7356C64.0488 12.8771 72.5446 12.5016 82.3147 12.5586L81.8899 12.537C83.2587 12.5763 84.533 12.6274 86.0434 12.655C102.185 12.938 102.893 12.9282 116.251 12.2952C120.357 12.3464 125.171 12.3876 129.655 12.4643C135.555 12.5665 140.841 12.5331 146.599 12.4348C155.898 12.2756 165.621 12.2068 175.91 12.1812C189.126 12.1459 201.444 11.9866 211.639 11.5365C221.551 11.0982 236.23 10.9409 250.154 10.8053C282.815 10.4829 315.382 10.1271 348.374 9.88534C396.187 9.53545 443.149 9.02044 490.915 8.67449C503.328 8.58407 515.788 8.50347 528.249 8.4445C566.527 8.2617 604.853 8.09461 643.131 7.91181C648.936 7.88429 654.6 7.80763 660.311 7.75455C663.568 7.7231 667.061 7.64841 670.128 7.672C688.442 7.80566 706.66 7.82728 724.879 7.66413C760.089 7.85677 794.922 7.70148 829.849 7.44791C831.265 7.73293 826.451 7.75062 822.958 7.77814C816.398 7.83121 809.554 7.83711 803.04 7.90001C794.12 7.98847 784.822 8.06316 776.751 8.23221C762.827 8.5251 748.951 8.68235 733.233 8.59193C723.605 8.53689 713.646 8.53885 703.923 8.65286C704.867 8.93985 710.011 8.95754 713.41 8.94182C733.469 8.85533 753.434 8.85336 773.494 8.95361C778.167 8.9772 783.783 8.93002 787.889 8.8337C797.943 8.59782 808.091 8.52313 819.371 8.61355C834.097 8.73149 847.36 8.46613 861.048 8.30887C869.827 8.20862 878.889 8.13982 887.857 8.07299C891.066 8.0494 894.984 8.01992 897.674 8.07299C916.129 8.44057 931.563 8.18503 945.439 7.67593C950.867 7.47739 956.578 7.37715 963.469 7.36142C991.08 7.29655 1018.74 7.22972 1046.4 7.16879C1058.15 7.14127 1070 7.15699 1081.61 7.09606C1130.18 6.83855 1178.88 6.93094 1227.5 7.00367C1263.56 7.05674 1299.62 7.13144 1335.63 7.22382C1363.2 7.29262 1390.38 7.48722 1417.62 7.729C1417.95 7.92753 1418.23 8.08872 1418.51 8.2499C1419.98 8.28725 1421.25 8.34622 1422.71 8.35212C1436.07 8.41305 1449.05 8.50347 1462.08 8.67055C1474.68 8.83174 1488.27 8.90054 1501.87 8.75508C1507.39 8.69611 1513.33 8.70987 1519.99 8.68628C1521.31 8.92019 1522.44 9.11676 1523.58 9.31333L1524 9.29171C1514.85 9.32119 1505.07 9.45092 1496.72 9.35657C1473.83 9.10104 1450.65 9.09907 1427.43 9.01848C1416.91 8.9831 1406.38 8.8396 1395.43 8.87105L1395.9 8.88481C1388.87 8.6391 1380.33 8.61945 1371.97 8.66073C1360.88 8.7138 1350.4 8.67055 1339.69 8.54082C1328.36 8.40322 1316.7 8.36784 1304.91 8.5133C1298.58 8.58996 1291.5 8.64107 1285.03 8.60962C1266.72 8.52313 1248.74 8.55261 1230.38 8.61355C1212.21 8.67449 1193.7 8.50347 1175.3 8.48775C1161.14 8.47595 1146.93 8.58996 1132.82 8.57817C1097.51 8.54868 1062.4 8.60569 1027.19 8.74722C989.617 8.89857 951.717 8.91626 914.052 9.046C877.378 9.1718 840.422 9.20325 804.315 9.57869C791.429 9.71236 777.695 9.70646 764.384 9.77329C719.31 9.99541 675.415 10.4829 630.906 10.8308C609.478 10.9979 587.908 11.1276 566.386 11.281C556.521 11.3517 546.751 11.4343 536.414 11.5168C534.243 11.2829 532.261 11.0706 530.326 10.8603C537.689 10.876 545.052 10.9075 552.415 10.8996C555.813 10.8957 558.173 10.7895 555.86 10.5714C547.6 10.6716 539.199 10.7738 530.75 10.876V10.8682ZM499.316 10.9094C486.572 10.8603 477.746 10.8977 469.062 10.992C462.973 11.0588 462.171 11.2318 465.38 11.6308C480.956 11.4552 492.268 11.2148 499.316 10.9094ZM96.2855 13.0481C96.2855 13.0933 96.2855 13.1385 96.2855 13.1857C99.1647 13.1995 102.091 13.223 104.97 13.2211C105.631 13.2211 106.386 13.1287 106.764 13.0756C106.858 13.0619 105.725 13.0127 105.159 13.0127C102.185 13.0186 99.2591 13.0343 96.3327 13.0481H96.2855ZM740.313 9.61014C741.304 9.58852 742.248 9.5669 743.239 9.54331C742.673 9.52758 742.012 9.49613 741.635 9.50203C740.596 9.51383 739.652 9.54331 738.661 9.56493C739.228 9.58066 739.794 9.59442 740.313 9.61014ZM446.925 11.6898C448.105 11.6898 449.285 11.6898 450.465 11.6859C450.513 11.6859 450.465 11.6367 450.465 11.6092C449.285 11.6092 448.058 11.6092 446.878 11.6151C446.831 11.6151 446.878 11.6643 446.878 11.6898H446.925ZM400.907 11.8372L402.228 11.8785L402.606 11.8235L400.907 11.8372Z" fill="rgba(239,239,239,1)"/>
<path fill-rule="evenodd" clip-rule="evenodd" d="M1523.58 9.30552C1529.95 9.23279 1536.37 9.16006 1544.34 9.06767C1545.05 8.92418 1545.95 8.72958 1547.22 8.47208C1560.11 8.4249 1573.18 8.41704 1586.16 8.58215C1595.98 8.70796 1605.61 8.73154 1615.85 8.60574C1621.99 8.53105 1629.11 8.53891 1635.63 8.57036C1663.95 8.70009 1692.31 8.82393 1720.49 9.00281C1762.83 9.27014 1804.98 9.57481 1847.17 9.87949C1852.84 9.92077 1859.73 9.97974 1863.41 10.139C1874.55 10.6186 1888.8 10.7739 1903.24 10.9429C1905.84 10.9724 1907.68 11.112 1911.79 11.279C1894.61 11.4186 1880.35 11.3262 1868.13 11.051C1845.9 10.5537 1840.61 10.4476 1819.09 10.5871C1811.4 10.6363 1804.69 10.6893 1798.23 10.4161C1796.06 10.3237 1789.87 10.3139 1786.52 10.3709C1775.81 10.5498 1765.23 10.4712 1754.33 10.4515C1719.88 10.3945 1685.99 10.1586 1652.01 9.9424C1632.98 9.82249 1613.73 9.75762 1594.56 9.66917C1593.71 9.66524 1592.82 9.67506 1592.06 9.66327C1572.9 9.35466 1553.12 9.36056 1533.06 9.44312C1530.23 9.45491 1527.07 9.33894 1524 9.2839L1523.53 9.30748L1523.58 9.30552Z" fill="rgba(239,239,239,1)"/>
<path fill-rule="evenodd" clip-rule="evenodd" d="M82.2203 10.4338C92.0849 9.90892 102.563 9.79885 112.758 9.67894C132.109 9.45289 151.508 9.2347 171.001 9.02241C200.123 8.70397 229.339 8.39143 258.555 8.08282C263.275 8.03368 268.892 7.97274 271.157 8.24793C272.951 8.46023 268.797 8.63517 261.104 8.70594C206.589 9.21897 151.367 9.60621 97.8431 10.304C94.1616 10.3532 90.1969 10.3689 82.2675 10.4318L82.2203 10.4338Z" fill="rgba(239,239,239,1)"/>
<path fill-rule="evenodd" clip-rule="evenodd" d="M883.75 5.50588C891.821 5.44691 899.845 5.34863 907.963 5.3388C928.542 5.31522 949.215 5.33094 968 5.33094C946.808 5.65331 935.244 5.70245 883.75 5.50588Z" fill="rgba(239,239,239,1)"/>
<path fill-rule="evenodd" clip-rule="evenodd" d="M843.631 5.58637C838.376 5.87991 825.255 6.0044 804.267 5.95985C819.654 5.54902 829.377 5.45664 843.631 5.58637Z" fill="rgba(239,239,239,1)"/>
<path fill-rule="evenodd" clip-rule="evenodd" d="M39.9375 18.5155C27.6248 18.5796 15.1542 18.6436 0 18.7237C14.5227 18.9 31.2554 19.037 40.0954 19.2221C61.8795 19.6796 97.8706 19.8149 138.913 19.8309C198.267 19.8558 257.779 19.8523 317.132 19.8612C331.339 19.8629 345.704 19.8469 359.596 19.8665C549.18 20.1388 738.765 19.9163 928.192 19.838C1072.47 19.7775 1216.59 19.7045 1360.87 19.6226C1440.12 19.5764 1519.2 19.5016 1598.45 19.4357C1674.69 19.3717 1751.09 19.3076 1827.34 19.2257C1857.8 19.1937 1890.32 19.2008 1914.16 18.9178C1936.57 18.3232 1888.74 17.9886 1877.54 17.5151C1848.49 17.4137 1821.81 17.3211 1793.87 17.2232C1785.03 16.8868 1776.19 16.5539 1766.88 16.1997C1734.52 16.0377 1700.42 16.0199 1666.96 16.0822C1534.67 16.3261 1401.13 16.1161 1268.53 16.2371C1246.43 16.2567 1223.54 16.214 1201.44 16.1695C1195.6 16.157 1191.34 16.0377 1186.92 15.9737C1195.92 15.7316 1214.07 15.7369 1230.49 15.7191C1334.83 15.6123 1439.17 15.5144 1543.51 15.4094C1571.61 15.3809 1599.87 15.3489 1627.65 15.2973C1634.12 15.2848 1639.33 15.1922 1652.12 15.0694C1634.28 15.0338 1624.02 14.9893 1614.23 14.9982C1571.93 15.0409 1529.78 15.1015 1487.48 15.1549C1467.74 15.1798 1448.01 15.2243 1428.44 15.2154C1270.74 15.1406 1113.36 15.2599 955.975 15.3133C823.06 15.3578 690.303 15.4895 557.389 15.5482C478.303 15.5821 398.902 15.5554 319.658 15.5429C285.561 15.5376 253.201 15.5892 219.735 15.6835C180.903 15.7921 152.015 15.9897 134.177 16.3759C117.603 16.7355 87.61 17.0256 85.8736 17.5044C103.711 17.5934 121.233 17.6807 138.597 17.7679C138.913 17.8337 141.597 17.9085 139.229 17.9477C131.652 18.0794 124.075 18.2307 112.867 18.3126C106.868 18.3553 93.6085 18.2681 83.5057 18.2396C69.1408 18.3321 54.6181 18.4247 40.2532 18.5173L39.9375 18.5155ZM753.446 16.5931C741.764 16.5967 730.083 16.6002 718.402 16.602C717.139 16.5593 715.718 16.5165 714.455 16.472C716.034 16.5148 717.612 16.5593 719.191 16.602C730.241 16.3973 741.764 16.4685 753.288 16.5949C763.864 16.4276 769.231 16.157 796.383 16.3225C817.693 16.0538 840.898 15.9648 867.891 16.2229C887.623 16.1481 904.829 16.1908 918.879 16.3706C939.4 16.0324 964.499 15.8864 998.911 16.1232C1010.43 16.1374 1021.8 16.1517 1033.32 16.1659C1043.58 15.9879 1057.16 15.9149 1075.63 16.0039C1085.42 16.0128 1095.05 16.0235 1104.83 16.0342C1110.36 16.0342 1115.72 16.0271 1121.25 16.0342C1122.51 16.0342 1123.3 16.0787 1124.25 16.1036C1117.93 16.0698 1111.62 16.0342 1105.31 16.0004C1094.73 16.0894 1083.21 16.2567 1077.37 15.9559C1065.21 16.0911 1054.63 16.2727 1033.48 16.1392C1022.12 16.1196 1010.91 16.0983 999.543 16.0787C972.707 16.1641 945.872 16.2496 919.036 16.3332C902.146 16.2869 885.097 16.2389 868.207 16.1926C845.791 16.3635 821.482 16.3475 796.54 16.2905C782.018 16.392 767.653 16.4916 753.13 16.5931H753.446ZM1654.64 17.5561C1639.49 17.4777 1627.81 17.5525 1616.92 17.6646C1606.5 17.6735 1595.92 17.6842 1585.5 17.6913C1585.66 17.6646 1586.14 17.6949 1586.45 17.6913C1597.03 17.5027 1602.24 17.4991 1616.92 17.6646C1627.49 17.565 1633.49 17.2766 1653.38 17.5454C1655.43 17.5347 1657.96 17.5294 1659.54 17.5133C1660.8 17.5009 1661.12 17.4742 1661.91 17.4546C1659.38 17.4884 1657.01 17.524 1654.64 17.5578V17.5561Z" fill="rgba(239,239,239,1)"/>
</svg>
