<svg width="1920" height="954" fill="none" xmlns="http://www.w3.org/2000/svg"><g clip-path="url(#prefix__clip0_58_843)"><g clip-path="url(#prefix__clip1_58_843)"><path fill-rule="evenodd" clip-rule="evenodd" d="M1024.54 670.149c1.23-.376.84-2.464-1.31-4.269.22-1.001 1.47.499 2.4 1.189.79-2.4-.52-4.205-.33-6.427 2.58-.6 5.75.147 6.92-3.802 6.7 7.51 6.64-.801 10.75.66 2.7 6.686-3.72 3.762-1.54 9.733 3.59-3.986 8.98 1.052 11.34-6.941 2.87 3.264 5.08 6.114 4.99.45 2.74 3.275 3.96 7.531 2.7 9.446 1.71 2.089 1.25-.806 2.5.218-2.06-2.528-.52-6.051-3.61-8.254 4.86 3.431 5.15-3.571 8.59-3.374-2.34 4.619-3.25 8.92-3.99 9.492 3.94 5.642 5.18-4.291 7.16-6.681 2.11 4.209 4.54 2.176 5.81 1.119-.14-1.221-1.54-2.03-1.48-3.297.21-.645.86-.268.9-1.226.77 1.326.69 2.909 2.27 3.98 3.57-1.005 5.57-5.508 8.73-7.407.63.718.74 1.626 1.54 2.306-2.98 2.923-2.9 6.199-5.51 9.246 4.64 2.786 6.13-1.438 10.03-.332-.36-3.31-1.75-.552-3.19-2.743-.23-2.299.67-2.067.99-3.144 3.06 1.789 3.58 6.408 5.55 5.784.19-1.631-.87-2.86-.6-4.499-.78-.656-.68.615-.9 1.206-1.84-1.585-4.61-8.168-3.2-2.752-4.54-3.666-2.46-6.57-.49-6.411-.96 3.195 3.76 2.137 3.84 6.29 1.82 1.148.28-5.029 1.9-4.338 2.69 2.735.66 5.88-.35 6.681-.05 2.512 3.04 4.026 3 6.557 2.51 1.593 2.35-2.686 5.06-.651 1.59 3.637-.53 3.081.44 7.368 3.72 4.205 2.39-2.63 5.84.984-.6-3.223-2.59-.814-4.83-4.122 1.33-.305 2.33-1.324 4.23-.384-3.46-2.727-3.32-4.968-4.58-8.882.18-.646.84-.267.9-1.223 2.66 1.041.45 3.6 3.12 4.657-.63-5.94 11.16-5.184 13.39 1.403-.27-3.347 1.93-2.253.26-5.726 3.42 1.745 3.07 4.662 5.6 6.677-2.54-.15-3.11 3.874-6.05 2.859 2.98 3.195 8.17 2.007 10.16-.391 1.61 1.355.92 3.468 3.17 4.622.65-3.081 1.15-6.554 6.02-2.965-1.77-4.268.29-4.338-3.04-8.454 2.94 3.088 1.98-2.774 5.86-.117-4.09-5.497 2.29-3.663.25-7.685 4.25 1.377.58 5.495 3.95 7.182-.32-3.766.86-4.377 2.63-3.763 1.09 1.853 1.57 3.902 2.34 5.841-3.34 3.662-9.05 2.055-10.34 7.376 2.48 2.777 1.12-2.497 4.15 1.419 1.05-11.225 13.55 1.301 15.42-8.178 9.41 6.268 15.03-5.869 21.93 1.889 2.02.019 3.75-.542 5.94-.182-2.18-6.45 2.94-3.158 4.3-5.438.85 1.29.83 2.898 2.47 3.883-1.99-4.29.94-5.581 2.56-1.92 2.17-6.642 10.4-1.358 13.55-6.089-2.52-1.764-.91-4.116-.79-5.47 1.74 1.582.19 4.41 1.63 6.115 5.99 2.445 7.27-4.232 11.03-6.09 3.06 6.083 8 4.567 6.77.308 2.38 2.605 2.18.305 4.22 2.237-1.28-4.821 1.91-4.92 5.52-5.06 3.57-.18 7.59-.354 7.94-5.137 8.49 7.333 7.39-10.026 15.14-2.318-1.73-.37-2.32 1.409-3.35 2.347 3.34 3.993 4.12-3.96 8.41-3.439 1.74.201 9.2 3.056 6.73-1.805-.18-2.196 3.02 1.744 4.27 2.13 1.21-4.367 5.69-2.804 6.64-7.597 5.22 1.663 11.96-2.671 17.57-4.713 75.34-21.861 144.65-57.189 208.24-100.59 63.62-43.467 121.68-94.805 175.83-149.855 2.43.76 2.95 3.073 3.81 5.114-12.74 2.924-14.39 18.888-26.65 22.343 1.78 3.394 1 3.418.34 5.401-1.5-1.05.11-1.067-.65-2.924-2.82-.529.1 5.86-4.4 3.294.45 2.685 3.34 3.547 3.91 6.15-9.53-3.602-13.53 3.702-15.54 11.42-4.96 2.143-10.75 3.234-11.62 10.411-1.07-.353-1.71-.987-2.09-1.851-2.98 9.18-16.1 11.092-15.71 19.978-2.55-1.133-2.21-2.548-3.75-1.798.37 1.22 1.87 1.647 2.99 2.327-11.81 1.788-11.33 15.662-24.42 16.396 2.93 5.284-4.71 4.015-6.72 5.543-3.36 2.565-2.05 9.187-6.55 6.517-.58 5.31-3.37 7.739-9.19 6.081-.65 2.539 3.13 2.302 2.48 4.851.91 1.92-4.15-.707-3.73-1.943.83 5.22-3.74 3.175-4.08 6.832-1.53-.483-1.87-1.675-2.16-2.925.22 5.691-4.38 4.868-5.49 8.778-4.37-5.287-.63-.439-4.49-1.468 1.39 1.905 1.73 4.238.74 4.885-.95-1.198-2.27-2.164-3.86-2.938 2.31 6.747-6.94 1.795-6.15 10.241-1.57-.78-2.5-1.992-3.05-3.422-3.14 4.784-14.63 10.362-13.27 14.53-1.75 2.309-7.53-1.13-6.1 5.683-4.65-2.128-9.93-1.685-8.2 2.697-16.33 6.751-26.57 19.571-43.79 26.065-.09 1.422 1.03 2.174 1.21 3.459-2.7-1.471-2.57-.414-6.15-1.788-4.94 9.734-22.11 7.947-26.9 20.764-1.59-.857-2-2.347-3.67-3.174-3.23 2.867-5.62 7.067-10.48 7.397 1.58 2.109 6.76 8.167 4.38 11.997-3.05-2.466-3.3-4.77-6.35-4.866-2.12-2.058-1.35-6.595 1.39-3.784-.9-4.491-6.11-3.844-3.42-.268-8.77-3.034-8.54 8.196-17.45 4.884 2.23 5.933-2.26 6.104-7.41 2.767-.21 1.455.82 2.298 1.9 3.091-6.16-.142-9.6 4.152-15.94 3.71.39 1.479 1.66 2.546 1.95 4.072-8.26.735-14.06 10.913-23.42 6.215.07.958 1.11 1.461 1.79 2.132-8.19 2.251-13.94 8.694-24.25 7.328-3.23 5.99-13.95 6.77-20.91 9.301-.55 2.541 2.45 3.515 1.89 6.06-.36.603-.71 1.221-1.68.749-3.38-9.418-7.43-1.666-11.1-2.98 1.67 4.629 2.33-.051 4.3 2.064 2.64 3.014-.52 3.277-.74 4.262-8.58-8.959-10.49.017-17.01-2.447-.59 2.51 2.4 3.556 1.8 6.057-.19.904-1.69-.562-1.68.711-1.18-1.136-.77-2.94-.94-4.486-2.42-1.567-3.64-.95-3.37 2.362.82 1.606 3.19 2.582 2.63 4.746 1.73 1.237 1.06-1.852 3.42.544.39 3.83-3.45.03-2.49 4.927-3.98-4.071-4.15-1.237-6-1.431-2.54-3.774 3.25-.316 2.51-3.937-5.67-4.144.03-2.524-.08-4.852-7.22-3.965-3.23 2.363-9.35-.035.16 1.889 2.9 2.677 3.45 4.417-.01.915-1.05-.01-1.71-.276.51 2.352 1.37 3.025 2.59 2.812.34 5.363-2.71 4.546-2.45 9.784-2.19-1.07-2.99-.885-4.29-4.06-1.8.81-.07 8.186-3.37 6.244-1.84-1.185-.4-3.737-.88-5.474-2.59-1.607-1.57 2.918.03 4.845.04 2.98-4.3-2.194-4.25.776-1.35-1.393-.75-3.589-3.43-4.441 1.38 6.898-4.31 11.102-7.61 5.065-1.58 1.248-4.89-.802-4.23 4.657-5.76-5.528-5.18 3.376-9.4-2.202 2.8 10.462-10.57-2.028-10.32 6.806-4.66-.762-6.92 3.144-11.95 1.639-2.35-1.803 2.05-1.086-1.64-3.205-1.84 9.747-12.83 1.465-16.27 8.069 1.48 1.286 1.79.178 3.35 1.615.9.937.54 2.385 1.64 3.24-2.94.256-7.45-2.675-10.18-2.025.56 2.183 1.52 1.341 2.51 1.974 2.24 2.657-2.27.035-.98 4.144-1.21-2.094-2.07-2.77-3.34-2.633 2.35 10.003-8.43-.723-8.79 6.87-2.63-1.617-3.68-3.778-3.2-6.487-2.58-2.529-2.28.848-4.24-.41.21 1.494 2.05 2.45 3.29 3.596.52 3.846-1.08 3.339-1.88 4.457-1.45-1.393-1.83-3.168-1.52-5.181-1.49 4.183-5.88 2.452-8.67 3.967-1.28-1.454-.59-3.605-3.22-4.584 2.39 9.048-9.61 6.478-10.69 11.326-2.89-3.673-5.81-1.408-4.83-5.945-2.26-.223-1.35 2.066-.21 4.847-1.55 1.173-6-7.063-6.72-2.538 2.19 2.53 1.75-.547 3.37.779-.19 1.009.08 1.85.73 2.599-4.51 1.1-11.04-2.196-12.33 5.793-2.01-4.58-2.1-3.888-5.54-7.63-.19 2.877 2.72 4.773 4.72 6.949.78 7.439-6.49-2.497-6.22 3.867-4.06-2.157-1.68-6.369-4.58-8.863-.21 3.484 2.04 6.22 2.83 9.416-.29 3.502-3.18-2.611-3.37-.82-1.08-1.225-.52-2.952-.57-4.518-2.05-.652-3.32 2.499-1.16 5.076-5.59-4.54-3.24.435-8.22-4.916-1.36 4.166-2.21 2.994-6.09 1.934.62 2.308 3.2 4.001 2.1 6.846l4.04 3.435c1.65-.394-1.2-4.546 2.62-.83.41-1.38-.52-2.354-1.49-3.29 2.81-.607 10.36-5.154 12.59 3.519 1.75 1.642.59-3.1 1.12-4.107 3.04 2.854 3.11 5.966 2.07 7.785 1.39.73 5.64-1.168 2-4.383 1.3-1.888 4.87 1.134 4.55-4.272 1.69 1.655-.03 4.392 1.34 6.151 3.06 2.802 4.58-4.991 6.74 2.556 2.02 1.559.37-3.03-.65-3.556 1.52-.704 3.25-.945 5.98.918-.22-1.502-1.36-2.707-1.48-4.228.36-1.746 2.33-.051 2.69-1.791.72 1.32 1.15 2.758 1.48 4.222 2.24-4.553 6.13-5.546 10.57-5.462 2.1 1.95-1.22.749-.19 3.869 2.41 1.87 1.97-2.217 5.08 1.081-.86 2.437-2.53 3.204-5.99.194 1.98 7.355-6.5.978-7.22 6.163 6.87.299 11.02-3.514 16.52-3.707-.41-3.332-1.81-.485-3.3-2.654.59-5.534 6.24 6.016 6.83.47-1.25-.478-2.15-.233-3.39-.705-.9-4.694 2.8.2 1.91-4.482 1.79.973 1.52 2.646 1.52 4.222.87.059.95-1.54 2.57.056-2-5.833 7.09-5.216 11.37-4.923 2.69 3.611-2.82-1.07-1.82 2.526 5.3-3.443 11.12-5.785 18.3-5.44 1.13 1.19.61 2.955.71 4.503 3.9 3.396 2.47-2.715 1.05-5.117 2.12-1.874 2.39 4.773 5.85 5.544 1.5-2.723-3.63-3.162-3.27-5.515 3.78-1.021 4.83-7.398 11.23-3.224-1.59-6.181 1.35-4.169 2.73-6.809 2.39 1.003 2.15 3.035 4.19 4.189.97-4.505 4.14-4.676 6.97-5.548 2.21 2.783-1.21 2.893-1.79 3.557 3.5 2.594 5.58-.96 6.1-5.204 2.64 1.24 1.59 3.888 4.22 5.125.18 3.127-2.79 1.723-.97 5.181 5.63-1.815 8.11-5.384 10.55-11.712 3.68 1.466.98 5.392 4.2 7.047 4.39-2.233 8.5-4.986 15.54-2.254-.52-6.172 3.39-2.487 5.16-2.104-.02-1.962-2.33-2.945-1.71-5.161 6.18 3.898 9.24-7.983 13.74-.808 4.82-3.129 14.95-1.511 16.34-7.73 5.19 3.337 5.24-2.627 11.26 2.157-.63-5.266 3.43-2.102 2.46-7.961 2.44.895 2.28 2.95 4.37 4.003 9.99-4.313 18.78-10.713 31.61-10.177-.93-2.149-.95-4.489-2.69-3.726 9.85-.884 19.39-2.444 25.5-9.764.78-2.921 6.16 1.87 7.75.291-.27-1.203-1.8-1.81-1.87-3.115 3.47.383 7.83.759 9.26-4.437 1.78 1.145 3.56 2.299 5.34 3.443 5.99-8.401 16.4-9.487 26.16-11.762-.23-.901-.96-1.537-1.02-2.531 16.72-4.316 29.21-15.449 45.06-21.279-.93-6.001 11.79-7.269 17.99-10.922 3.35-1.977 4.03-6.376 9.12-3.991l-.37-3.935c5.4 4.599 3.89-5.049 10.23-1.513 3.24-9.129 17.31-8.725 22.22-18.012l3.69 2.021c6.55-11.579 21.3-11.502 27.43-23.603 7.73 1.686 6.9-8.546 14.56-6.982-.53-6.025 5.88-2.525 5.8-7.923 9.49-1.811 15.55-8.372 21.15-15.439 16.8-9.857 28.37-26.547 44.95-36.686l-.72-3.946c.09-1.212 1.65.711 2.07 1.873 6.18-8.692 12.38-12.891 18.4-21.902l3.8 1.745c1.18-1.624-3.64-5.6.77-4.989 1.5 1.067-.13 1.072.57 2.914 1.74.102 2.77-1.843.96-4.003 7.42-5.927 14.34-12.381 21.14-18.931 6.8-6.554 13.42-13.266 19.9-20.093 12.9-13.727 24.8-28.407 36.72-42.955 23.62-29.917 46.11-60.971 69.64-92.061-.3-.961-.6-1.94-.89-2.901 8.93-5.986 9.54-19.956 20.06-24.533.39-2.193-3.02-7.55 1.39-3.987-.97-2.911.46-7.504 4.76-7.416-.42-1.277-.86-2.572-1.29-3.861 2.63-2.569 5.99-4.47 5.74-9.727 7.41-5.183 11.49-13.643 16.05-21.555 4.56-7.94 9.5-15.453 18.44-19.56-.48-1.277-.96-2.547-1.44-3.833 5.12.411 7.23-4.753 4.95-8.606 1.77.275 2.57 1.627 4.39 1.82-4.44-5.374-.21-4.012 2.16-3.941-1.58-7.379 2.89-11.059 6.6-16.147 1.73.306 2.91 1.236 3.81 2.509 1.57-.659-4.01-5.365.77-5.083-.41-.929-1.55-.984-2.42-1.358-.37-2.197 3.11-1.244.75-5.066 1.58-.019 2.21 1.116 2.79 2.288-.85-2.827-1.07-7.152.74-9.516 4.41 1.73.96 2.852 2.39 5.736 0-7.636 1.75-13.792 2.48-20.724l5.06.864c2.97 2.887-.96-2.489-3.44-1.461-2.07-5.008.22-6.387-.24-11.394 3.48 1.805 4.25-2.005 5.49 1.776 2.07-.534-3.31-4.54 3.01-3.884-1.66-4.099-2.99-.723-4.06-.646-1.8-5.714 3.63-5.868 1.31-11.938 1.27.343 1.62 1.84 2.27 2.948 1.43-.137-.44-2.797 3.21-1.269-4.52-2.213-.67-2.66-3.03-6.613 10.11-3.316-.16-22.41 12.04-22.968-5.81-6.02-1.85-9.672-1.6-13.247 4.66 3.357-.98 4.486.97 7.936 1.87.33 1.59-.877 3.62-.436.49 3.778 3.28 9.249 3.14 12.62-7.52-5.605-3.94 6.294-3.75 8.334 6.71-2.292 9.1-12.212 5.25-21.284 1.53.452 1.96 2.404 2.8 3.818.68-3.258 3.97-8.756-2.69-13.442-.5-2.64 3.53.89 5.05.488-1.96-8.21-.18-11.379-2.71-20.572 3.76-6.6 7.34-13.437 3.38-25.034 3.23-3.189 2.74-12.002-.98-17.632 3.7-3.383 2.51-11.741 2.41-19.74-.14-8.061 1.06-15.54 9.06-18.31-11.12-2.68-2.61-9.919-11.76-14.165 1.79-2.001-6.29-9.539.5-8.695-2.35-7.183-2.71-13.165-1.03-18.046 1.69-4.865 5.42-8.63 10.93-11.591-2.09-2.543-4.15-5.18-7.09-5.876-.37-2.014 1.51-2.86 5.17-2.83-3.14-3.254-.89-3.739-.56-5.219-4.15-2.746-3.06-3.736-6.74-6.643-2.47-.154.62 2.471-1.18 2.653-3.37-8.755.16-18.489 10.93-22.21-5.54-3.54-6.02-6.795-3.86-9.313-10.26-11.168-14.52-21.371-16.64-30.506l5.92-.584c-5.52-1.368-2.74-5.67-5.1-8.829 1.16.255 2.32.493 3.25 1.349-.2-7.433.03-14.291-6.18-22.383-.09-7.656-.52-18.016-8.91-26.765.98-2.193-.48-6.269-2.57-10.368-2.22-4.149-5.15-8.349-6.74-10.82-5.39-8.338-9.56-15.447-17.59-22.556-.36 1.673-3.24.864-5.67 1.07-2.37-1.953-.09-2.5-2.45-4.426-2.04 1.672.96 3.506-2.78 3.756 5.41 3.826-3.44 5.114 2.52 7.681 1.47 1.535-3.71.973-4.94 1.64.75 3.154.76 6.078.39 8.87-3.64-3.815-3.63-5.051-9.88-10.546.06 2.706.14 5.652.21 8.754.08 3.111-.03 6.319.28 9.728.53 6.796 2.11 14.2 6.17 22.072.69 1.512-.73 2.223-2.72 2.695 1.33.609 2.76.933 4.23 1.165-.32 1.284.65 3.074 1.23 4.726-7.97-.97 3.01 8.595 7.53 13.025-3.18.127-5.22-2.733-7.49-4.96.62 1.567-2.25 2.457-5.2 1.205-2.9-3.463.34-2.644-4.27-5.96-2.79-.036 4.59 4.048-.3 3.159 1.04 2.142 3.07 1.814 4.25 3.62.15.693.32 1.392-.64 1.633-2.73-1.103-4.77-3.944-7.51-4.974-.35-.614.33-.801-.33-1.537 4.68 2.915 1.99-2.123 1.56-4.031 1.62-.256 2.85.718 4.48.388-1.57-4.708-9.87-8.59-10.67-12.519 3.14.8 5.14 5.015 7.8 7.181.53-1.477-.42-5.337-4.52-5.917 3.87-2.985-2.13-9.721-5.16-15.183-3.24 1.519 2.6 6.396 4.17 9.748-7.56-4.402-8.76-10.194-3.63-11.362-3.57-4.776-6.59-9.241-2.69-11.32-4.22-6.767-5.47-12.352-6.22-17.792-.8-5.434-1.33-10.782-5.03-16.977-4.48.968-1.98 4.014-8.36 4.365 1.19 2.774.49 5.017-4.3 5.917.91 1.096 2.14 1.003 3.13 1.845-5.97-.057-1.03 3.378-3.86 4.301-2.17.165-3.84-1.408-5.52-3.061-3.82 1.001-.2 4.434-1.65 6.21-2.47.901-3.62-2.034-5.93-1.578-3.3 2.183 2.58 5.892 3.07 9.951-4.85-.567-7.26-5.723-9.32-7.868-.31.585-1.41.908-3.13 1.014.7.635 1.7.397 2.61.476 1.67 2.237-2.1 1.917 2.28 4.151-1.62.234-2.87-.641-4.51-.333 2.16 3.548.61 5.811-.9 8.054 1.89 1.704 4.08 2.519 6.58 2.41 1.92 1.559 2.52 2.638 2.54 3.494-3.57-.402-6.98-1.319-10.39-2.181-.17-3.452-5.42-10.306-12.06-13.518-.7-5.294-1.77-10.652 2.06-14.35-6.9-.961-4.02-3.713-3.06-5.412 3.64.572-.62 1.895 1.79 3.386 4.07-.813-2.75-5.174-3.4-7.486 2.55-.724 3.92 2.135 4.46.215-5.59-2.195-4.74-7.348-2.77-9.632-4.82-3.726-1.88-5.623-3.72-9.363-5.65-1.836-1.77 2.327-2.68 3.138-2.92-3.529-7.8-11.319-1.52-14.421-6.6-4.835 1.68-13.867-13.04-18.03 2.35-2.225-5.02-4.854-2.15-6.446 2.92.581 1.79 1.843 5.67 2.398-5.08-7.118-13.02-14.414-24.51-16.944-2.81.803-5.79 2.574-9.99 1.123-4.33 2.131-3.74 6.948-14.55 5.469 4.51 2.324 2.26 4.353 7.54 5.846.96-.238-.61-1.068-1.38-1.705 3.34.066 2.17.635 4 1.964-3.4.131-4.38.819-3.96 1.835-2.18.496-4.08-.324-5.82-1.725-.72.711-.06 1.681 2.16 2.218-6.36.652-1.56 6.541 1.23 10.621-8.14 1.721 1.67 8.291 6.92 13.874-.62.056-1.25.113-1.88.176-8.64-4.052-8.28-7.824-13.87-11.246-2.55-.009-.67 1.196-3.93.982 8.18 8.075 4.15 10.629 9.23 17.938-.9-.054-1.67-.516-2.6-.448-.65-2.317-4.17-6.505-8.33-8.752-2.75.101.06 1.845-2.41 2.019 3.62.643 4.27 1.757 2.03 2.323 2.31.38 4.53 1.059 6.69 2.041-2.36 1.32-.11 6.527 6.83 7.747 2.49 1.632-5.3-1.258-2.95.819-1.75-.328-1.45-1.841-4.82-2.242-.85 1.133 5.36 4.321 7.77 4.609 1.01 1.267-4.55-.648-6.29-.277 2.03 2.514 4.83 2.206 7.02 4.066 1.72 1.482-2.94.281-3.52-.455-1.98.859 3.4 2.254 4.52 2.949-.44.303-2.98.944-5.67.255-2.86-1.804-1.63-2.221-3.33-3.628-3.51.954 2.25 3.791 5.7 4.791.15 2.601-.1 4.805 6.15 8.686-2.8.921-4.33-1.716-6.84-1.686-.96-1.794-1.17-3.309-1.92-5.005-3.76.103-7.05-1.059-9.92-3.425-1.98.233-.26 1.658 1.9 2.424-4.04-1.193-.73 1.434-5.65.136 3.97 3.3 3.35 4.905 2.92 7.409-2.54-.394-3.78-3.219-.04-2.501-.44-.523-1.04-.563-1.64-.596-.47-.401-.95-.804-1.42-1.211-3.37.199-.75 2.541.28 4.337-3.52-.576-6.58-2.444-10.1-3.008 3.29 1.915 1.69 1.382 4.26 3.67-2.34.446-4.13-.619-6.31-.612 1.11 1.283 2.54 1.63 3.77 2.454-1.94.257-3.33-1.131-5.37-.64 1.37 2.599.3 4.279-.31 6.117-3.91-.585-1.85-1.534-5.19-3.745-2.5.052 2.23 2.938-1.79 2.395 1.36.519 2.43 1.715 3.95 1.91-4.78 3.234 1.4 10.966-2.55 14.554.95.769 2.3.631 3.5.777 1.82 1.607 3.42 3.137 3.15 3.864-13.3-4.248 1.28 7.578-2.03 9.264-11.27-5.867-6.91-7.799-11.04-12.398-3.06.208 2.18 4.258-3.83 2.208l4.07 3.929c-1.65.153-2.95-.62-4.42-.904.44-.756-2.92-3.181-.59-3.086-3.77-1.118-1.78-1.643-5.3-3.376-6.84-1.413 7.1 6.403-.13 4.823l11.99 10.051c-2.75.225-4.59-1.385-6.43-2.946-4.54-.874-2 1.489-3.11 2.187 2.24.778 4.26 2.038 5.82 4.171 1.22-.168-1.24-2.041 2.51-1.037 1.47 1.904.96 2.909-1.5 2.971l5.85 6.1c-4.95-1.726-3.56-2.366-4.76-.42-2.83.409-3.93-2.683-6.68-2.47 7.6 4.114 4.48 4.667 10.03 9.683-2.11 1.216-2.95 3.051-5.88 3.824 6.97 5.156 7.65 7.7 10.95 11.984-2.79.311-3.73-3.175-6.02-3.856-.43 3.186 8.74 11.477 13.73 15.72 3.26-2.047-6.69-8.285-8.01-11.249 1.57.131 2.91.785 4.1 1.72 1.82-.081-2.62-3.819-4.15-3.67 7.39.404-9.56-14.021.65-13.354 8.46 6.645 6.94 11.838 4.7 14.551 5.08 3.751 7 6.701 7.43 9.267.38 2.556-.6 4.746-1.05 7.076-4.26-3.664-7.49-6.128-13.1-9.324 2.89 2.581.93 2.587 3.33 4.921-9.88-1.676 2.73 6.331-5.94 5.108 2.34 4.957 1.74 3.424 2.89 7.557 1.78-.113 2.51 1.593 4.07 1.858.72 1.482-.63 1.81 1.74 4.209-3.65-.172-4.6-2.96-3.98-3.836-3.7-1.652-.93 4.452 2.62 6.316-.94 1.088 1.55 4.147-3.62 2.809-1.23 1.554 5.7 7.951 2.28 8.327-5.1-1.418-8.33-5.766-12.16-9.164-.67 2.55 5.2 7.197 2.37 9.613-3.62-.641-3.96-1.647-4.21-.027 2.28 2.708 2.13-1.303 4.41 1.389.81-.759 1.82-1.395.94-3.162 4.24 1.845 3.68 1.894 4.24.003 1.21.295 1.85 1.499 2.68 2.411.89 1.646-5.09-.787-4.6.604 1.3.748 2.14 2.168 3.65 2.576.64 1.781-1.54 1.877-1.92 3.037-2.31-.744-2.92-1.521-2.67-2.435-.45-1.065 1.44.495 2.86.471-2.21-1.51-4.25-3.306-7.1-3.827 9.88 11.448 7.22 15.526 10.69 23.354-1.3-.163-2.6-.339-3.43-1.277 2.24 1.831 4.79 7.821 4.13 10.335-4.06-2.168-4.2-6.872-6.59-8.047 3.84 1.189 2.45-.735-.56-.783 1.83 5.871 1.57 10.203-.07 12.951-5.75-2.231-1.36-5.426-6.95-8.839-.54 1.332-2.37.715.8 3.542-6.43 1.548.91 16.499.04 21.986-2.6-.435-2.35-5.017-5.53-4.639 3.91 3.383 4.18 5.775 4.39 7.877 1.35-.411 3.15-.532 2.64-2.22.86.308 1.47 1.001 2.43 1.207 1.51 3.721-5.02 1.928-.82 7.513-1.63-.26-2.64-1.429-4.32-1.64 2.59 3.88-.81 3.654-.14 6.257-1.62-.33-2.87-1.169-3.9-2.282-1.65-.092 1.22 2.98-2.34 1.55.53 1.31 1.72 1.717 2.96 2.078-4.49 5.3-5.62 10.13-7.43 17.213-1.81-.625-3.04-1.97-3.9-3.786-1 .65.07 2.822-1.32 3.197.86 2.852 4.36 2.2 5.35 4.873-3.96-.748-3.68 1.605-1.71 5.257-2.1-.242-2.96-2.045-5.24-2.048 1.26 1.76 3.54 2.303 4.79 4.076-5.39-1.372-.64 1.687-1.46 4.595-2.11-.264-2.96-2.074-5.28-2.098 1.01 1.131 2.2 2.038 3.84 2.441.7 3.513-7.16 4.08-11.99.32.62 4.915 5.97.94 9.06 6.025-.86.978-2.57-.803-5.25-.711 1.73 3.536-2.22 3.157 2.79 7.925-.92 1.386-1.55 3.295-6.21.427.78 1.43 1.56 2.838 2.34 4.255 4.65 1.846-2.73-2.74 1.92-.897 4.7 4.943-2.37 6.543-.65 12.131-2.52-2.685-5.11-4.292-5.13-6.555-5.45-.956 3.62 6.773 2.59 9.44-5.61-2.236-2.77 2.36-2.18 5.17-5.29-1.514-4.81 1.68-5.06 4.307-3.39-2.052.17-2.456-1.7-4.878-2.61-1.13-3.51-4.199-6.02-5.452 2.9 5.022 1.72 7.965 5.15 13.19-1.72-.599-1.09 1.114-3.43 1.133-4.6-2.709 2.08-4.219-4.52-5.776-2.08-3.207 2.27-1.082.2-4.293-4.03-1.833-.27 5.345-4.87 1.378 1.72 3.01-.2 3.195 1.1 6.886-5.62-4.776-1.44 1.653-6.23.203 2.62 5.223.06 6.016.9 9.776 2.82 2.432 6.15 2.69 4.82.098 4.71 4.215-.21 4.514-1.36 5.428-2.38-1.541-3.9-4.187-3.98-4.967-2.44-1.696-3.24-.917-6.55-3.612 6.12 5.34.2 3.11 3.22 8.367 4.19 2.451.67-1.797 3.92-.169-.52 1.241 1.11 4.37-2.68 2.781-1.59-.851-.16-.997-1.24-2.612-1.72-.736-1.76.655-2.85-.954-3.04-.726 4.13 4.22-.65 1.973 2.58 1.682 5.38 3.089 6.81 5.95-1.23 1.395-2.38-1.899-5.15-2.454.87 2.14 2.74 3.222 4.49 4.454-.2.682-1.75.178-.66 1.986-4.37-1.11-5.12-5.981-9.1-7.489 1.55 1.889 2.89 3.946 4.89 5.334 2.17 3.628-4.7-.73-1.32 3.98-2.59-.356-3.86-2.077-6.06-2.812 1.64 3.693-1.19 3.4-2.79 4.204 4.1 4.849.9 5.85-.63 7.178-2.09-.446-1.32-3.84-4.03-3.649 3.06 5.01-.27 4.609-1.65 6.82.42 2.531 3.66 2.324 4.4 4.547-.82 2.308-4.28-3.29-7.03-3.275-.51.911-.1 1.83 1.56 3.537-10.06-4.036-1.43 9.25-8.36 8.109 3.58 5.083 2.28 5.047 3.28 9.456-.38.616-3.42-1.545-3.93.042-3.65-2.808-.19-3.336-1.73-5.896-3.73-.196-2.2 3.639-.89 7.162-2.48.326-3.43-1.776-6.92-3.38-.12 1.992-2.65.847.4 4.657-1.23-.47-2.48-.944-3.71-1.42 4.06 2.885 2.58 7.19-3.07 4.053 3.94 5.414 1.11 4.257-1.23 4.772 1.22 3.357.9.613 3.18 1.994 1.06 2.303-1.23 1.341-1.38 2.474-4.2-1.93-3.46-2.676-5.17-5.056-1.22 1.168-3.19 1.6-8.29-1.047-.56-1.09-.42-1.5.22-1.404-2.65-2.21-3.92 1.538-5.29 2.37 4.77-1.015 8.53 3.597 12.56 2.015 2.99 7.948-6.89-.822-7.77 2.175 2.9 2.672 7.89 3.437 10.42 6.43-3.25-1.67-4.67.657-8.62-1.936 2.02 3.468 4.82 6.226 6.94 9.624-4.33-4.841-5.44-3.187-8.75-4.297-2.3-1.186-2.23-4.49-5.14-5.12 1.61 2.518 1.37 2.796 4.56 5.644-.59.859-4.04-.494.14 2.342-.88.767-3.51-.214-5.79-.856-2.03-1.93 2.31-2.692-2.48-6.327.42 1.861.37 5.815-.56 8.231-.98 2.396-2.89 3.207-6.02-1.113-1.08.555 1.09 4.433-2.02 2.936 4.89 7.237-2.93 5.26 1.05 13.391-4.74-3.803-3.76.6-6.83-3.69-1.97-.107 2.57 4.041 2.34 6.352-2.54 1.696-6.51 1.873-4.96 7.853-3.77-3.407-4.61-.593-2.38 2.039-4.19-2.705-2.9.359-5.78-.983 2.31 1.887 2.79 1.528 6.18 4.25-.72 1.444-4.55-.01-6.77-1.433-2.17.731 2.91 4.577-3.04 2.485.91 1.194 2.45 1.886 2.79 3.549.47-1.994 2.7-2.099 5.85-1.259-2.27 1.81-4.88 3.265-6.74 5.495-.8-.501-1.23-1.317-2.16-1.731-.17-2.111 4.29-1.02.58-5.139-3.51-.701.14 5.759-5.82 3.56.52 1.332 1.03 2.648.01 2.328.78 1.309 1.81 2.41 3.4 3.074.84 3.427-2.74 2.073-2.14 5.239-2.35-.422-2.82-2.365-4.91-2.993.42 2.672 3.74 2.761 2.14 4.073-2.75-.774-2.37-3.869-3.98-2.587.17 1.794 2.2 2.104 2.76 3.582-12.04-3.94-10.07 8.939-17.57 8.268-1.74-.925-1.55-3.363-3.02-4.53-2.94.079.83 7.643-5.96 3.442.76 1.314 1.77 2.435 3.35 3.15 1.57 2.942-.55 1.767.52 4.146-1.83-.497-2.16-2.148-2.7-3.621-2.54-1.058-1.57 1.816-3.44 1.512.48 1.146 1.92 1.574 3.04 2.222 1.46 2.825-1.25.983-.7 2.808-1.11-1.045-1.6-2.568-3.32-3.148.37 1.216.76 2.457 1.14 3.685-2.09-.675-2.51-2.631-4.87-3.106-2 3.512-4.05 6.984-7.31 9.069l2.73 1.329c-.9.562.99 4.343-1.32 3.309-1.82-.513-2.15-2.17-2.68-3.66-3.25-.164-3.33 6.015-2.99 8.037-2.98-2.45-4.29-2.515-3.7.559 3.9 1.357 2.57 2.6 2.91 4.59 1.67-3.607 6.31-.69 7.86-4.893-.79-1.538-.76-.294-1.82-.888-2.03-3.544 2.74.728.7-2.828 3.96 2.576 3.18 1.667 7.31 3.519-6.17.056-5.92 9.884-12.6 7.379.39.837 1.2 1.385 1.46 2.3.01 2.338-2-2.818-3.92-2.727 2.94 7.084-1.9 5.138-4.65 5.599 2.76 4.201 1.18 4.947-.86 5.121-1.92-3.1-3.16-6.675-6.43-8.765.19-1.574 2.71-1.723.22-4.628-.81 1.392-1.4.782-4.29-1.363 2.17 3.494.74 3.449 2.51 5.999-.14 1.872-3.44.044-2.05 3.721-5.59-4.057-6.02.832-6.43 4.671-3.66-4.141-4.47-2.946-3.48 1.413-1.23-.984-2.2-2.152-2.6-3.716-3.76-.385-1.89 5.948-5.24 6.057.58 1.797 3.16 2.183 3.48 4.177.98 2.422-4.24-2.626-1.92 1.405-1.54-.755-2.54-1.909-3.24-3.274-1.52.146 3.31 3.797.15 3.266-1.98-.799-3.45-1.982-4.12-3.723.15 3.278-5.93 1.623-2.89 6.44-2.08-.771-2.42-2.736-4.76-3.3 3.59 4.329-1.13 1.871-1.07 1.81-1.76 2.216 2.12 8.306-3.84 5.904 2.97 4.424-1.33 4.367-2.29 5.95-1.07-1.095-1.49-2.623-3.2-3.311 2.77 5.315-2.42 2.003-.27 7.848 1.91 3.319 4.74 2.571 4.02.563 1.07.189 1.16 4.297.32 4.186 2.13 3.788 2.13-.23 3.1.052 1.3.951 1.37 2.738 1.87 4.217-.2.765-5.45-3.094-3.29 2.258-2.19-1.065-4.31-2.167-4.98-4.281-3.21-1.687-1.38 2.929-5.32.338 1.22 2.087 3.54 4.27 2.1 5.16-3.52-5.763-4.1-11.214-4.09-15.871-1.46.285-3.8-.54-5.53-.605.65 1.727 2.86 4.711.07 3.242.62 1.402 1.95 2.329 2.51 3.775.09 2.926-2.18-1.086-5.12-1.989 5.05 5.751.01 10.649-5.63 4.959 2.83 3.534-1.37.956.49 5.078 3.13 1.845 1.33-2.566 4.44-.758 2.1 2.697-2.69 2.098-3.98 2.614 1.02 1.492 1.79 3.152 2.04 5.154.51 2.173-2.55-1.709-2.26-2.867-2.03-.326 1.72 4.525 3.6 5.219-.05-1.56 2.16-.251.66-3.648 1.45 1.209 2.61 2.632 4.05 3.848.09 3.104-4.92-.254-4.7 3.017-2.53-2.526-4.05-9.505-6.73-8.582 3.46 3.585 1.1 2.278 1.13 4.656-3.55-4.095-.38-2.63-4.7-3.438 2.06 2.85 2.68 3.879 2.24 6.085-4.83-5.056-.97 3.549-6.24-.28 3.38-3.439 2.92-9.971 10.02-9.663-5.48-3.721 1.28-4.197-3.86-9.342-1.63-1.013-1.61.066-3.35-1.079 3.11 5.067-2.37 3.516-5.11 1.121 4.2 3.46 1.42 4.751 5.83 8.07-1.06.359-.1 3.284-2.66 1.725-2.49-1.858 2.84-1.505-2.47-3.8-1.84-3.621 2.73.929.88-2.695-1.59-.8-2.16-2.199-3.79-2.942 1.85 6.006-1.63 2.692-4.67-.241 4.67 6.002-2.6 4.853-3.52 7.612 1.44 3.166 1.59 1.816 3.78 2.958 1.6 6.282-5.53 4.233-3.1 9.512-2.65-.797-2.41-3.463-4.2-4.826 1.62-1.324 2.59-3.498 5.31-3.403-.88-2.307-2.37-4.216-4.44-5.753.7 1.762-.27 1.366-1.33.833.59 1.063 1.18 2.124 2.23 2.896-5.22-3.114-6.68 4.521-4.64 9.432-4.84-7.824-5.1-1.926-9.94-6.559.41 1.62-.08 2.05-1.1 1.791 2.39 4.303 2.04-.247 4.18 1.619 2.88 2.619 2.52 5.859 4.16 11.312-4.56-2.96-1.78-5.048-4.17-8.087-3.77-1.68-1.01 1.213-1.33 4.091 1.85 1.315 2.78 3.248 4.17 4.86.06 1.607-3.25-1.25-1.77 2.228 3.64 1.989.47-5.033 5.96-.618-.64-4.1-.93-7.738 1.14-8.273 1.95 1.379-.57 2.176-.89 2.725 1.38 2.995 3.73 1.466 1.33-.858 11.31 13.732-7.52 8.713-9.26 16.548 1.24.669 2.48 1.329 2.86 2.5 2.39 1.654-.09-3.215 2.95-.704 1.74 1.925 1.09 6.255-2.34 3.5 3.31 2.978 3.9 9.368-.14 6.438-1-.538-.36-4.394 1.63-3.116-3.71-3.989-2.48-4.682-4.96-8.618-2.73-.747-3.09-2.082-5.99-2.715 1.17-3.116 4.81-1.083 3.52-8.45-4.03-2.528-2.5-3.499-6.41-4.586 1.9 2.392 5 4.022 4.8 7.678-2.2 1.45-5.58 1.313-6.79 4.082 1.95.928 3.36 2.181 3.93 3.96 1.55.098 2.59-.495 3.6-1.118 1.48 2.09 1.16 4.199 1.22 5.606-1.43-.559-1.83-1.726-2.17-2.913-3.41-.742 2.64 4.466-.55 4.559-1.78-2.104-2.59-4.787-4.55-6.781 1.75 6.952-6.87 4.382-5.19 11.59-1.75-1.41-2.17-3.643-4.78-4.521.01 2.463-2.68 1.24-1.05 5.926 1.96.911 3.38 2.163 4.58 3.574-.32 2.706-2.89 2.324-2.64 5.806-2.92-2.433-5.1-9.153-.49-6.044-2.39-1.73-2.73-4.695-5.16-6.395 2.44 6.015-.61 4.938-.95 10.088 2.98 2.533.56-2.366 2.92-.696 2.58 3.64-1.56 1.808-.4 5.524-1.53-.816-2.07-2.267-3.69-3.059 5.07 8.411-4.1 2.244-3.13 7.163-4.92-4.841-.26-5.502-2.59-9.002-.83-.477-.43.744-.47 1.363-2.57-.554-1.3-3.451-3.87-4.021.46 3.003-3.2 1.608.26 5.082 1.18 3.919-3.36-.163-3.46 1.942-1.68-1.776-3.09-4.931-.74-3.726-3.95-4.94-1.41 6.701-6.93-.228l1.08 5.601c1.75.737 2.44 2.09 3.68 3.117-.05 2.551-2.1-.236-4.18-1.8 2.13 7.126-3.96 2.727-9.51 2.26.96 5.351-7.8 1.878-8.58 6.947 2.42 3.551 2.04.001 3.96.864 2.28 4.218-1.74 5.326-3.44 6.111-3.18-3.376 2.15-1.25-.87-4.718-2.26-1.072-3.86-1.684-5.16-3.302.24 1.984 1.9 7.381 2.75 10.92-.79 2.01-3.92-3.214-6.02-3.882-1.14.005-.66 5.931-3.64.949.12 5.535-3.32 5.862-6.54 6.506-3.15-1.399-1.78-5.168-4.93-6.574-.48 3.307 3.67 4.185 3.54 7.322-.05 3.058-4.3-2.902-6.87-4.546.1 2.027-2.29.338-2.79 1.479-1.1-2.151-2.78-3.987-5.44-5.298.71 1.145 1.76 3.461.47 2.814.61 2.552 1.25-.307 3.4 2.273.9 3.209-1.7 1.211-2.78 1.476.6 2.378 3.17 2.036 3.26 1.335 1.32 1.703 2.13 3.652 3.2 5.471-1.22.899-3.12-1.848-1.09 2.613-3.82-2.591-1.44-2.87-3.19-5.462-2.83-1.282-.09 2.457.78 4.698-.8 2.11-3.68 1.117-4.9 2.594-1.63-2.215-2.01-5.079-3.48-7.366-2.3-.301-7.75-5.507-7.87-1.954-4.44-3.879-6.41-6.191-9.86-5.028 1.93 1.05 3.2.539 5.08 3.462.38 2.719-1.36 2.188-2.63 2.394.33 1.893 2.5 2.766 2.3 4.919 1.1-1.054 6.4 1.709 4.17-2.204 1.38 1.661 2.93 3.239 3.15 5.5-.92 1.049-3.65-3.802-1.93 2.044-2.55-.689-1.13-3.483-3.68-4.176 3.3 4.424 1.31 5.306-1.65 3.921 1.01 3.309 2.84 3.371 3.38 2.309.39 1.784-.72 1.291-.25 3.195-1.59-1.576-4.83-2.312-5.26-4.455-.89-.099-.25 5.735-2.98.464-2.08-.834 2.65 7.652-.58 6.315-1.2-1.094-1.05-2.84-1.41-4.337-2.08.401-8.04-2.195-5.67 2.783-.11.895-3.46.805-3.36-2.339-2.7 2.143-3.58 9.037 1.13 18.55-.67.673-2.02.255-2.01 1.995-3.03-1.851-2-5.711-5.56-7.318-.26-3.859 1.05-1.81 2.82-1.398.03-3.36-1.27-6.07-4.16-8.002.15.922 1.14 1.446 1.83 2.129-.16 1.951-.04 4.329-2.7 2.328-2.2-1.745.92-.805-.54-3.76-2.97-2.737-.53 3.065-3.79-.138 4.12 7.747-3.1 4.484-8.01 1.927.6 3.327 3.01 9.093 5.66 8.283-3.09-3.67-.77-3.034 1.16-2.585 1.22 1.169.31 1.713-.57 1.295 2.78 3.181 4.8-1.184 7.45-.67-2.3 8.171-13.44 8.595-18.47 14.929-1-.871-.92-2.219-1.18-3.411-1.66-.688-2.98-.856-1.92 2.863-3.65-4.672-1.87.004-4.79-1.78-2.16-1.3.13-4.683-2.96-5.562 1.84 5.655-.73 3.052-4.18 2.9 1.33 4.417 1.57 7.646-3.35 3.52.97 4.122-1.74 2.16-.77 6.291-10.3-8.93-12.18 2.322-21.81.108 2.22 3.361 2.27 6.963-1.26 2.487-.39 2.449 1.09 4.095 2.13 5.938-.28.541-.56 1.11-1.45.602-1.22-2.424-3.04-4.566-3.06-7.494-3.89-2.154 3.34 6.737-1.97 2.803 2.71 5.792.92 4.102-.97 5.293-1.81-1.518-2.01-3.72-2.13-5.93-.96 5.721-8.37 4.346-5.31 14.965-.7 2.49-2.21-.1-3.81-.319-2.36-1.941-1.8-5.113-4.43-6.924-.1 2.652 1.38 4.633 2.89 6.594-2.27-.089-.33 2.25-1.1 4.38-3.47-3.711-4.25-10.058-2.51-10.667-1.43-.867-1.75-2.182-.91-1.572-5.06-3.428-11.3-6.859-10.2 3.359-2.51-1.545-.73-4.904-3.57-6.293 1.27 4.993-5.15 1.481-7.19 3.052.04 1.604 1.18 2.781 1.14 4.394-.87-1.266-1.02-2.81-2.58-3.815-1.19.782.17 1.254.31 3.738-.89-.925-.7-2.302-1.77-3.165-3.42-2.653-3.43.768-1.15 4.312-.95-.914-1.41-.95-1.54-.365-.95-.908-.82-2.259-1.04-3.45-3.49 1.175-12.02-2.541-10.91 4.285-5.69-3.031-1.64 2.411-5.23.118 1.58 6.99-.13 6.411-.69 10.891 2 1.76 2.36.538 3.85 1.369.43 3.246-2.95-.531-2.85 2.096-.94-.906-.8-2.27-1-3.465-2.5.559-6.57-1.782-9.07-1.253-.95-.922-.8-2.274-1-3.485-1.28.089-2.98-.616-2.84 2.095 3.57 9.212-10.21-.023-10.79 6.943 5.01-.209 9.62-1.213 14.95-.857-.34 2.632-2.74 1.471-4.37 1.73 1.48 3.996 2.38.143 3.83 1.39.13 1.876.26 3.752.38 5.647-1.41-1.046-1.74-2.525-3.23-3.557-1.94 3.28 2.15 10.571-3.25 8.84-1.81-2.676.65-4.263.37-6.794-1.11-1.835-3-3.351-3.35-5.459-.1 1.436 3.3 11.939-1.72 9.201-1.41-1.405-1.9-3.129-1.8-5.076-3.04-2.282.76 7.927-2.64 6.673-2.67-1.581-1.22-4.65-4.11-6.144-.1.673.35 1.132.84 1.595 1.23 2.15-1.77 1.11 1.04 5.343-1.01-.441-4.05-.608-1.33 3.339-1.2-.347-1.03 1.971-3.01.133-1.62-2.904-.59-6.774-2.75-9.487-.41 1.292-1.03 3.056-1.22 5.215-1.88-1.234-1.8-3.17-3.98-4.287-1.62 1.92-4.43 1.552-6.62 2.392-1.74-1.63.89-1.499-.24-4.699-4.09-1.432 1.03 9.889-4.99 4.679-.36 1.003 1.14 5.646-.56 4.026.3 2.584 1.28-.14 3.11 2.698l.13 2.816c-3.77-2.261-4.36 1.738-8.27-.829-2.18-4.099.57-5.687 3.64-2.27-.03-2.342.23-4.105 1.3-4.29-1.06.702-6.95-4.194-5.89 2.117-2.72-1.892-2.05-4.988-4.76-6.867 1.52 6.264-3.13 7.242-6.43 8.72-2.34-2.661.67-1.336-.14-3.721-1.53.594-2.22-2.423-4.64-4.12-.77 3.064-3.84 1.51-4.31 5.188-5.22-4.102-2.13 1.967-3.48 8.68 1.39-1.011 2.02-3.482 4.43-2.4.23-1.339-.66-2.299-1.6-3.246.4-1.529 1.38-1.852 2.97-.969 1.57 1.11-.08 2.542-.68 2.099 1.79 2.437 9.15 8.589 8.36 2.906 3.62 4.405 7.6 2.66 9.04-.152 2.06 2.037 2.63 4.166 2.27.188 6.49 3.94 10.92 3.719 13.48-.098 2.99 5.481 4.67-.276 6.27 5.364-.26-1.887 1.08-2.133 2.09-3.633-1.41-1.303-1.6-.253-3.1-1.738.35-1.028 1.06-1.353 1.39-2.411.98 1.239 1.68 2.583 1.71 4.143 2.31 2.218 2.32-.037 4.63 2.149.15-1.33-.82-2.238-.92-3.486 2.07 2.019 3.95 3.666 3.01-.127 1.24.977 3.03 2.988 3.11 1.732 1.87 1.228-.23 3.898 2.51 4.82-1.81-6.761 6.06-6.319 9.76-2.561 2.33 1.368-.87-2.641-.21-3.745.1-.632.74-.264.68-1.213 2.4 1.352 2.44 3.576 4.84 4.928-.26-5.918 6.83-3.405 11.16-3.325-.76-3.359.59-2.77.44-4.994-3.76-2.776.12 3.461-2.89 2.095-.47-2.872-.35-2.06-3.36-5.436-.45-6.11 3.14-4.172 5.99-.433.6 3.293-3.93-2.886-2.93 1.164 1.68-.561 4.95 3.721 4.97 6.73 2.32-.939 5.91.415 8.31-.374 1.73 4.647 1.07 2.737 4.08 4.176-.66 1.542-2.58.799-5.44-1.716.21 1.846 2.69 2.786 2.6 4.78.73-1.692 3.38.143 4.51-.82-.25-2.485-2.82-4.036-4.94-5.783 1.47-1.94 4.9-.336 4.97-4.869-.88-2.218-2.81-4.043-3.48-6.346 1.53-2.059 2.32 4.12 4.9 4.841 1.22 1.356-.24.929.2 2.806 5.17 4.577 8.11-.89 14.02 4.11.15-6.251 5.02-4.011 8.05-5.095 3.3 3.642-.06 4.313 2.19 8.784 4.05 2.231-.17-6.393 4.7 1.023-.82-2.911-2.3-5.541-4.45-7.896 1.47-3.036 4.51-3.291 8.16-2.506-2.7-6.426 1.13-5.217 3.33-5.371.97.904.84 2.265 1.07 3.474-.14 1.098-1.99-.792-3.19-1.581-.03.996.33 1.832.98 2.524l.16 1.89c2.48 1.413 1.17-3.806 5.39.635.34 2.479-1.64.88-2.13 1.884 1.97 4.427 3.32 1.078 4.75 1.891 1.41 7.669 3.54-.038 7.06 1.87-1.57-2.397-3.72-7.105-2.23-7.852 1.33 4.45 3.26 3.568 6.09 8.15-.22-1.196.05-1.521.67-1.253-3.22-4.044-.42-4.587-2.32-8.802 1.34.174 7.11 3.308 6.72-1.909 2.57 1.539 2.56 4.131 3.66 6.276 3.25 1.088 5.35.52 7.94 2.455-.11-1.235-.23-2.502-.34-3.753l-3.33-2.494c1.23 5.011-3.13.474-4.54.959-.25-4.117 4.38.077 4.28-3.776 5.57 9.506 6.47 2.362 12.08 5.5-1.71-.536-1.47 2.245-3.77.713 2.23 3.982 4.38 1.143 5.44.524-.92-2.25-2.28-4.249-2.97-6.584 1.26-2.099 3.43 3.603 5.08 4.622-.48-1.846.45-1.327 1.46-.688-2.86-4.888-1.15-5.696 3.66-1.697-4.21-4.62-.48-1.966-1.54-7.242 4.7 3.339-.33 4.988 4.68 7.778-2.84-6.02-.51-5.121-1.74-9.129 4.01 2.808.14 4.641 2.27 6.887 1.8-.782 2.16-1.01.96-5.41 3.68 2.542-.11 2.395 2.08 5.001 6.54 3.972 3.59-2.953 5.46-6.499 1.96 1.404 2.65 3.399 5.13 4.568-.59-4.338 3.07-1.658 3.37-4.522 1.74 1.836 2.24 4.245 3.78 6.173.41 1.697-.61 1.056-.52 2.226-2.2-.973-1.84-3.12-2.84-4.638-1.73 1.822-.72 4.899-4.11 4.884 2.36.506 5.63 2.498 6.21.091 2.6 1.603-1.84 1.209 1.16 3.449-2.64-.696-3.9.866-6.12.837.32 1.191 1.74 1.853 1.89 3.101-.4 2.289-2.24-2.739-4.2-3.019.22 1.651-.36 2.01-1.37 1.629 5.74 9.728-4.93-.52-3.2 6.452-2.57-1.437-2.55-4.871-4.27-3.968.82 3.604 4.1 6.05 4.86 9.685 2.37 1.843 1.66-1.446 3.89.164-.25-1.199-1.62-1.907-2.61-2.766-.4-3.282 2.1-1.752 3.7-1.711 1.94 2.71-.36 1.879 1.32 5.342-1.15 1.238-3.4.639-3.51 3.619-2.59-1.424-2.54-4.873-4.28-3.98 4.47 12.503-8.49 8.189-12.96 10.799-1.48-1.973-.98-4.804-2.93-6.581 5.23-.707 11.26-.072 15.24-2.918-1-3.107-3.34-2.026-2.22 1.041-2.74-2.157-3.79-.69-4.36-4.941-.85 1.204-1.64 2.513-2.77 3.257-1.54-1.918-1.44-4.624-4.42-5.887 1.51 5.026.23 3.702-1.99 3.791-2.5-1.2-1.84-3.768-4.33-4.98-3.42-.221-4.94 4.215-4.72 7.912-.74-1.321-2.33-2.271-2.66-3.76-.22-2.629 2.45 3.937 1.49-.639-4.01-2.087-4.67 1.605-8.54-.259l.57 6.62c-1.96-1.772-3.23-3.856-5.86-5.324 1.57 5.981 3.95 4.73 6.02 7.214.24 3.403-5.85-4.22-4.56.978-3.57-2.399-2.15-6.928-6.16-9.117.1.928 1.07 1.511 1.72 2.193-1.26 3.995-5.55 2.712-8.99 2.89.44 4.046 4.8 6.461 5.83 5.345-.53 2.064 2.38 10.186-.99 7.272-2.35-2.682 1.01-1.604-1.11-4.424-2.74-3.205-.37 2.598-3.12-.603.89 3.405 2.48 4.043 1.25 6.324-1.77-1.196-2.66-2.784-2.67-4.743-3.86-2.306 1.77 7.132-1.95 4.76-1.9-2.116-.65-5.608-3.62-7.265-.38 2.449 1.11 4.128 1.24 6.316-.31.555-.61 1.119-1.52.596-1.52-2.53.56-3.394-2.04-6.92-1.71 1.119-2.69-1.55-6.48-4.187-5.15-1.492-6.56 4.065-8.88 5.446-1.07-6.586-7.83-.841-11.69-2.141-2.17-4.281 3.81-.772 2.68-5.897-5.19-2.677-3.28 6.641-8.28 2.311.21 1.213 1.52 1.976 2.48 2.881 1.09 4.226-1.83 1.088-1.25 4.382-7.09-6.731-6.74 2.154-11.67-3.121-1.43 5.031-5.8 1.502-5.64 8.022 1.51-.253 1.02.927 3.2 2.622-1.38 6.766-7.4-1.795-11.18-8.295.75 3.544 3.24 6.453 4.32 9.878-2.13-.344-3.54.718-6.19-.622-1.7-1.924.98-2.59.53-4.964 1.37 1.712-7.24-.782-7.63.871-1.28-.416-3.56-4.761-1.69-3.212-2.08-3.826-1.54.474-2.26.822.18 1.209 1.49 2.007 2.43 2.938-2.94 1.441-12.73-6.471-14.53-.442-1.32-1.11-2.63-2.231-3.95-3.346.07 1.86-2.1-.621-1.42 2.432-7.62-7.366-6.5 2.369-13.83-4.525-1.22 5.416-6.27 3.333-12.2-.627.77-3.261-.01-5.075.53-7.706-3.61 1.478-4.59 8.382-8.98 3.909 3.54 6.839 2.45 10.964 7.31 18.323-2.33-.257-5.27-1.767-7.66-2.163 3.74 7.153 8.21.301 12.41 9.082.17 2.143-2.76-2.001-3.88-2.483 2.23 5.177-2.92 1.36-2.17 6.375-1.08-2.778-2.23-5.545-5.5-7.614 2.1 3.883 1.33 5.136.93 8.193-2.72-2.715-6.87-6.064-4.61-1.296-2.43-1.699-3.06-4.739-4.63-4.117-2.27-2.824-.9-2.176-.85-4.45-1.97-.139-3.99-.39-4.52 2.447-2.61-2.283-1.26-5.88-3.93-8.143-.05 1.48 2.6 8.216-.67 4.954.7 1.971.66 4.178 3.13 5.58-1.25 2.552-1.26 1.724.08 6.582.58 3.053-3.63-3.926-3.05-.874-.24 3.699 2.51 2.924 3.85 4.384-.68 1.028-2.8-.969-3.05.996-1.81-1.918-.48-4.843-3.1-6.51 1.23 3.672-1.98 2.361-2.3-.233.75 7.053-4.64 5.246-10.72.424.78 1.932.75 4.119 1.54 6.063 2.41 1.167 1.73 1.503 4.6 4.218.37-1.651-1.1-2.786-2.29-3.972 2.59-2.217 8.1 1.702 12.29 2.807-1.31 3.731-7.11-1.994-8.46 1.625 1.86.54 3.74 1.101 6.16 2.801-.64 2.389-4.2-1.435-3.08 4.676-1.82-1.946-1.43-4.539-3.84-6.297.09 1.748-.95 1.102-.78 3.02-1.64-1.045-1.46-2.669-1.53-4.193-1.52-1.389-.98 1.653-3.06-.944 1.82 4.795-2.01 2.735-.02 7.472-3.36-2.082-2.5-5.453-5.34-7.715-.37 3.01-5.33 1.021-6.875-1.655-.974 3.73-3.345-1.442-4.583 1.377-2.266-2.72.737-1.318.02-3.737-3.763-2.845-4.266 1.416-7.596-.509.339 2.8.572 3.713 2.22 7.731-1.651-.422-3.369 1.863-1.587 6.098-2.453-1.13-.544-3.566-2.991-4.699-1.599-.657-1.363 2.759-3.819.207-.473 2.582 1.382 4.236-.066 4.663-2.503-2.394-.666-5.96-2.152-8.662-.217-2.716 4.197 4.846 3.027.012-2.1-3.724-4.85-2.275-5.336.625-2.144-1.275-1.928-3.168-3.743-4.511-.64 3.399-3.114 7.806-5.434 4.226-1.054-.676-.096 1.578.71 2.578-1.145.98-2.083 2.447-5.321-1.332.473 3.37-1.355 1.495-.88 4.855.453-3.2 5.835 4.776 5.364-.535 2.966 3.805 2.075 5.892 5.965 7.624.257 6.188-3.078.369-3.845.117.258 4.459 2.856 2.55 4.461 6.167-.387-2.839.382-3.053 2.335-.62-.376-3.401 1.477-1.54.108-4.663-2.107-1.493-2.196.99-3.754-3.58.24-1.726 3.335 2.954 3.061.084 2.108 2.998.865 4.575 3.735 5.448-3.333-5.419 1.788-.32 3.104-.834.679.893 2.461 5.865.675 4.416 1.026-.421 5.991 4.35 6.917 1.785 4.644 6.627 4.928 1.248 9.093 7.513 1.303-2.095-.559-5.547 1.629-6.098 1.03 1.247.595 2.931.715 4.458 4.043 4.712 4.283 1.029 6.903 2.577-.4-2.339-1.16-3.084-2.28-3.055-.79-4.402 2.75-.841.83-4.932.47.719 2.91 5.041 3.06 2.818 2.22 2.872.85 2.195.72 4.454 3.42 2.308 3.66-2.299 8.49 3.036-3.32-8.853 4.73 3.08 3.15-4.687 2 5.232 2.59 1.515 4.61 5.123-1.14 1.037-2.08 2.545-5.42-1.142 1.92 7.235-4.35 2.837-8.54-.228 1 2.516 1.98 5.011 1.45 7.993.11-8.976 16.59 8.133 13.3-7.792 2.86.064 4.76-1.89 8.57.194-.42-2.334-1.21-3.084-2.31-3.028.01-1.871.01-3.732.02-5.62.51-.78 1.66-.245 3.11.922.07 2.978-2.45.475-1.58 5.151 2.2 1.819 3.25 1.197 5.45 3.012l.02-3.737c.57-.361 1.42-.142 2.34.222 1.69 1.636 1.67 3.848 1.54 6.069 3.62.561-2.25-8.402 2.32-6.415-.35-1.475-1-2.821-2.34-3.954.1-1.664.49-2.701 1.53-2.407 1.92 7.66 8.84 7.559 12.45 10.004-1.31 2.763-9.38-.218-6.19 5.873-2.27.911-5.95-1.143-7.8.624 1.98 4.712 3.52.528 5.47 2.047-.78 2.82-1.68.977-.82 5.878-4.35-6.791-2.69-.099-7-7.197-.55 3.597 1.77 6.304 3.85 9.092-.82 1.941-3.31-3.201-4.68-4.17-.01 2.215-1.37 1.553-.84 4.92-2.2-1.189-1.99-3.12-3.87-4.427.15 4.561-.93.481-3.13.016-.65 3.097-3.45 1.589-3.98 4.955-2.49-1.403-1.56-3.879-3.04-5.617 1.26-1.959 6.62.845 3.18-5.644-1.28-.193-.89 3.229-1.61 4.251-.61-1.069-1.24-2.124-2.31-3.054-.02 4.137-.25 4.52-3.14 1.894-.84 3.694 3.05 5.922 2.2 9.619-.16.632-.79.235-.8 1.186-2.43-1.754-2.14-4.344-3.02-6.563-2.85-3.618-2.23.331-4.64-2.322-.3 1.33.58 2.319 1.51 3.279-1.43 2.719-7.29-4.285-6.3 3.786-5.55-1.544-7.09 3.155-13.196-1.672.538 4.519-2.171 1.769-3.215 2.74 1.318 4.126 2.266 4.832 2.107 7.747 3.481 3.107 3.022 2.03 6.114 5.728-.938-4.279-1.183-3.016-1.354-7.027 1.224-1.597 4.254.86 4.024-3.951 2.37 2.717 1.05 6.55 2.1 9.657 1.91 1.851 3.56-1.932 5.39 3.027 3.21.471 3.14-6.29 8.64-.769-.42 3.033-2.7 1.991-3.25 4.734 1.38.412 2.02-.849 4.66 2.334-1.15-3.593-.79-3.71 1.58-.486.35-6.818 7.44 1.129 9.49-1.986 2.36 1.161 1.34 3.347 1.48 5.171 2.42 2.64 2.1-.694 3.94.666-2.06-2.748-3.48-5.722-6.94-8.175-.72-1.339-1.14-2.771-1.5-4.221.8-.587 2.11-.018 3.15-.017 1.21 1.49.61 3.546 3.06 4.66.37-1.661-.48-2.963-.7-4.443.21-.844 1.55.736 1.58-.501 2.6 3.204.06 2.178 1.49 5.167-.2 2.512-3.71-2.15-3.19 1.907 13.96-.213 26.24-4.138 41.14-2.755-2.46-6.986 3.17-4.844 6.33-.231-.92-3.804-3.89-6.885-4.75-10.686 1.44-2.437 4.46 4.173 5.52.962.93.954.68 2.297.81 3.515 2.44.282 2.55-4.178 5.52-2.806 1.99 9.578 7.11 3.245 13.54 8.652.8-2.159-1.8-3.176-3.2-4.578 3.37-.764 2.39.609 6.37 1.618-.18-1.503-2.39-2.339-2.41-3.911.52-.821 1.69-.32 3.19.813-.69-1.652-1.08-3.42-.85-5.387.46-3.146 3.36 3.835 3.14-1.119 1.41 1.399 1.84 3.151 1.67 5.137 5.91.656 6.41 3.348 11.02-1.201.99 1.22 1.68 2.567 1.67 4.178 1.26-6.072 7.26-2.86 9.35-7.295.73 1.011 1.47 2.021 1.67 3.235 1.53-.368 1.63-3.512 1.41-7.234 2.09 1.129 2.92 2.734 2.5 4.817 3.72-3.666 13.16 3.53 13.35-6.861 2.48 1.309 1.64 3.855 4.14 5.173.04 1.859-2.2-.583-1.53 2.471 3.03-2.66 5.11-9.162 11.68-7.384-1.29-3.731-4.38-1.242-4.18-6.073 3.82 2.493 6.94 4.538 8.01 2.604-1.58-5.54-1.83.271-4.02-1.3-.47-4.113 2.06-2.642 3-4.118 1.48 2.639 2.55 5.449 3.5 8.289 3.31-2.774 2.94-9.816 9.16-8.534.91.923.65 2.333 1.75 3.188 1.47 1.256 1.68.182 3.24 1.597-.24-3.619-1.05-3.437-.27-5.714 1.01 1.541 2.29 2.969 4.18 4.136 1.04-2.458 3.52-2.286 5.44-3.147 2.04 1.662.34 3.277-.69 2.217 4.19 4.249 4.32-2.801 2.79-7.908 3.21 1.291 2.59 4.123 2.75 6.651 2.73-1.129 1.83-8.74 6-7.297 1.58.817 1.47 5.273-.66 2.247 2.38 3.208 4.56 3.782 6.52 3.061-.44.519-1.72 2.082 1.01 3.494-.27 1.23-2.56-1.129-1.43 2.595 2.92 2.356 2.54-1.204 4.76-.105-1.69-1.886-2.9-6.336-.29-4.794-.44-1.698-1.04-.414-2.5-1.864.73-2.146 2.06-3.179 1.07-8.335 3.04 1.314 1.54 4.57 4.34 5.981-.31-3.043 1.64-3.936-.49-7.657 3.84-.456 8.87.055 10.19-2.45-1.03-1.838-2.52-3.489-2.02-6 3.87 3.973 3.02 7.274 6.86 6.84.81 3.626-1.52 1.857-2.2 2.92 2.49 3.983 3.22-2.22 5.5-1.403-.63-1.382-2.01-2.401-1.89-4.098 2.2 1.103 2.37-.428 5.84 3.365.39-2.485-1.67-3.882-1.26-6.337.85-1.007 6.31 5.91 4.71-1.061 2.01 1.077 1.96 3.058 4.31 4.014.32 2.483-1.08 2.04-2.26 1.968 10.44 5.316 15.06-6.52 23.33-7.699 1.33 2.055 1.89 4.432 2.2 6.948 1.99.315 1.89-2.867 4.7-1.206-.07-2.296-1.57-3.914-2.89-5.611 3.28-1.721 14.08 2.671 11.18-9.227 3.28 2.972.36 3.367 2.16 5.955 2.58-.993 2.98-1.5 5.48-1.571-.42-1.458-1.65-2.534-1.99-4.057 1.58-2.686 11.35 4.15 8.56-3.023 2.02 1.368 2.7 3.398 5.27 4.49.56-1.499-.57-5.715 2.94-2.48-3.31-8.948 7.66-1.473 7.08-8.623.67 1.685 3.35 2.366 3.67 4.237.84-2.655.94-6.444 6.19-2.119-.52-2.408-.26-3.58.34-4.213.75.965 1.51 1.926 2.7 2.681-1.21-2.618.86-3.657 1.53-.768-.23-2.807 2.09-3.306 5.33-2.683-2.6-3.043-1.77-3.826-.54-4.774 1.04.818.93 2.222 1.19 3.429 2.67.221 3.53-2.334 6.21-2.11.91 4.452-2.46.265-.22 5.158 1.64.179 3.55.785 3.93-.976 1.23 1.08 1.01 2.869 1.32 4.39-1.43.677-6.04-3.601-4.69 1.374 1.03-1.856 4.29 4.659 5.13 2.459 2.7 3.173 1.45 4.267.65 5.748-1.84-1.452-2.04-3.702-3.07-5.549-2.82-1.317-.83 2.807-.23 5.169-1.31.615-1.73 2.6-4.81.419 3.3-.713-1.02-5.942 1.77-5.944-1.08-3.15-3.28-.092-2.94-4.588-.13-3.216 2.74 4.911 2.61 1.717-.1-4.269-.91-1.927-3.7-4.205.3-.59.57-1.213 1.53-.768-3.47-1.972-5.54 4.998-10.03 4.035 3.62 4.016-.87 1.624 1.4 5.372 1.65-1.109 3.13-2.493 3.4-5.759 7.46 9.71-.85 9.726-.93 13.612-5.27-2.396-5.02-7.576-9.2-10.539 3.09 5.109-3.39-.095-1.85 4.999.68-1.378 5.15-1.328 6.82 3.634-5.33-3.961-.29 3.702-5.46 1.741-3.01-1.528-2.49-4.824-5.48-6.344l.5 4.811c1.22.742 2.43 1.467 2.7 2.69-1.19 5.614-5.64 6.004-7.85 9.984 3.44 3.122 2.85-.258 4.9.614-.49 3.739-3.16 7.59-7.92 1.8 1.39.075 1.98-1.12 1.21-4.529-1.37-3.129-2.46-.072-3.56-3.325-1.93 1.942-.17 9.114-6.2 2.91 1.03 3.588-1.06 2.09-2.24 2.053.81 1.282.75 2.966 1.98 4.055-4.46-1.305-5.99 6.559-11.19 1.281-1.47 1.139-2.31 3.29-3.64 4.688-.86-1.258-1.44-2.643-1.95-4.063-2.44-.928.77 3.435.41 4.797-3.14-1.858-3.77-4.888-4.68-7.784-2.58-.528-3.73 2.215-7.43-2.492 1.36 3.348 4.72 5.774 4.83 9.712 3.82 1.19-3.19-7.219 1.99-4.928 2.36 2.838 2.88 4.982 2.18 6.948-2.1 2.868-9.58-3.325-11.2.298-3.68-3.797-.26-3.173-.47-5.778-2.62-1.634-2.37 1.54-2.94 3.366.73.988 1.46 1.98 2.62 2.758-.49 1.373-2.48-1.122-.62 2.286-4.05-2.133-1.45 7.049-8.03.628 1.85 3.672-1.13 5.664-3.91 1.721 2.67 7.304-1.23 8.618-5.16 7.18-.15 1.362.9 2.22 1.02 3.477-3.57-1.736-4.49 1.632-7.49-3.61.14 2.222.28 4.449.42 6.703-4.19-1.464-2.22-5.603-5.3-7.54.17 3.995-1.91 4.066-4.64 3.003 1.25 2.723 1.13 6.063 2.14 8.908-2.88-2.676-1.7-7.12-5.38-9.46 4.38 7.687-.89 9.487-5.2 7.192-1.13 2.406 1.81 7.07-1.25 6.443-1.49-2.839-1.85-6.749-3.44-4.395-1.74-2.195-2-5.029-2.05-7.955-.72-.706-.76-.214-.78.342-.54-.411-1.11-.832-1.67-1.252-.06 2.636 2.04 4.34 1.99 7.005-.72 3.165-4.01-3.301-7.5-4.734.29 3.699-3.65-.184-3.91 2.544 4.06 3.828 5.04 2.08 5.64-.329 1.03 1.841 3 3.314 5.07 4.755-2.17-.114.03 3.356-4.01.642-.9 2.302 2.74 2.773 1.84 5.066-3.89-3.181-7.06-.707-10.53-.594.66 2.257 3.75 1.589 4.05.3 3.97 5.958-.39 6.747-2.97 6.054-3.29-3.334 2.63-1.402-.16-3.814-4.27-3.282 0 3.465-3.14 2.237-1.88-8.574-5.46 3.586-12.18-2.839.88 3.65-1.07 6.709-1.2 11.147-3.6-7.12-6.64 1.682-6.28 4.484-1.17-.829-2.33-1.642-2.5-2.883.68 2.732-2.47.596-2.26 4.798-4.39-5.339-2.83.97-4.78 3.711-1.58-1.642-1.55-3.871-4.15-5.144-2.75 6.12-7.41 3.376-11.17 7.973-1.68-1.856-1.65-4.142-3.29-3.57 3.29 6.492-1.38 3.726-4.82-.108 3.38 4.581 2.58 9.072-.7 7.919-2.76-3.75 2.52-.955-.06-4.77-1.46-1.294-1.71-.218-3.25-1.676.48 2.315 2.47 3.844.87 4.474-1.17-1.159-.32-3.071-1.67-4.168-3.62-1.146-3.2 1.561-1.55 4.422-1.27 2.134-2.6-5.088-4.06-3.295 2.28 3.846 1.23 5.837.07 7.634-3.15-4.53-1.3.346-4.83-2.978 1.77 3.48-.43 3.907-2.4 2.79-1.11-1.867.34-1.285-1.63-4.174 1.96 5.342-7.15 1.976-2.39 9.418-2.62-1.768-.51 5.951-3.25 3.933-2.95-3.161.09-2.949-.79-7.286-2.14-.796-2.74 1.479-4.87.705 4.44 10.444-3.51 7.497-4.09 9.911-1.39-3.112-.03-5.017.05-6.635 1.36.795 1.51 2.009 1.59 3.23 2.7 1.235.07-2.831 1.64-4.342-3.21-.096-3.32 1.222-8.86-4.544-.72 2.439 2.06 3.704 2.38 5.803-5.34-5.089-11.62 4.436-16.15 3.603-.26.724-1.79 4.331.72 6.369-.34 4.334-5.64-2.056-2.48 4.65-2.25-1.761-1.96-4.387-3.13-6.527.27-1.08 2 .915 3.21 1.767-.29-3.664-3.46-4.845-1.53-7.073-2.11.618-1.25 3.054-2.5 6.524-.62-1.03-1.27-2.074-2.37-2.977.01 3.252 1.82 1.718 3.14 5.57-.48 1.947-3.11-.594-2.47 3.693 8.11 1.861 14.5.054 21.02-1.49 2.6 1.009.57 3.605 3.18 4.595 1.53-.539.13-2.307.06-4.739 3.23 2.684 2.18 6.825 2.3 10.578-3.59.962-11.05-5.044-13.01 1.604-1.15.58-3.96-2.328-4.85-1.205 2.91 3.253 2.32 2.862-.84 2.192-.63 2.121 1.55 3.27 1.51 5.181-6.05-5.176-4.47-.16-7.34.514-1.93-1.282-1.68-3.218-3.96-4.39 1.86 3.509 1.7 6.31-.97 4.978-1.91-1.276.57-3.922-2.3-4.899.24 1.865-.68 1.244-1.64.521.59 1.377.78 2.856.66 4.454-4.44-.775-6.49-.868-11.27-3.976 2.55 7.196-3.51-.841-3.38 3.858-2.3-2.835 1.1-1.495.15-4.732-1.4.688-2.55 1.916-4.88.579-.48.998.74 5.717-.97 4.038 2.5 4.138 1.79 3.828 1.33 8.032 2.72-1.923 6.44 2.863 7.38-1.364 3.25 3.238.35 3.238 3.06 5.616.55-2.977-.49-5.478-2.17-7.753.41-1.521 1.8-.896 1.75-3.351 2.62 5.35 4 1.834 4.87.339 2.72 3.214-.3 3.649 1.37 8.021 1.91.184 1.3-1.266.96-4.05 1.15 1.163 3.88 3.991 6.43 3.616-1.06-2.163-.66-4.773-.59-7.314 1.81 2.562 2.47 5.483 5.5 7.661-.04-2.777 2.34-.433 3.32-1.041.46 2.053 2.38 3.646 3.12 5.584 3.7-2.932 8.72-3.071 13.97-2.786-.04-6.051 5.92.325 6.62-4.174 8.47 6.94 8.09-8.62 16.38 1.031-.65-3.267 1.17-1.532.87-4.099 2.63 2.713 3.79 2.463 5.71 3.72-.7 2.554-3.72-.276-1.72 5.331-1.45-4.598-2.03-1.701-4.07-2.389.68 3.8 1.8 2.331 3.24 2.658-.02 4.559-3.05 3.004-4.99 3.625-1.54-1.352.56-3.305 1.68-2.47-2.77-3.972-4.84 1.92-7.43 1.599 2.48 2.773 1.6-1.319 4.09 1.444-4.32.297-3.77 4.819-6.74 7.049-2.14-1.478.88-4.725-2.33-5.835-.03 1.279-.06 2.564-.08 3.829-5.23-2.061-8.13 2.213-9.2 5.99.2-5.386-3.1-2.669-5.65-2.798.76 2.193.64 4.48 2.35 3.936.08 7.177-4.9-2.195-5.08 3.497-2.36-2.069-2.91-4.704-3.89-7.218-1.74-.87-.96 5.197-.24 6.64-.79 2.551-7.52-3.744-5.06 2.527-.76.211-4.63-1.157-4.83-3.175.21 4.402-3.96 6.851-9.28 4.785 1.33-2.539 1.44-1.741 1.11-6.915-2.25-1.434-4.19-2.197-6.44-3.625-.77 1.355 3.95 5.413 1.47 4.235 1.22 4.519 1.84-.702 2.51-.792 2.85 5.253-.36 10.458-5.18 5.37-2.92.519-.84 12.146-6.12 7.552-.06 1.255-.12 2.529-.19 3.794-2.15-1.189-1.42-3.297-2.22-4.923-2.28-.845-1.03 6.179-4.27 3.213-2.27-2.849.62-2.661.24-4.772-3.66 3.723-6.67 8.22-12.56 2.733-1.29.639-3 .348-2.76 4.504 1.59 1.095 2.45 2.388 2.24 3.992-3.49-3.565-5.67 3.157-10.74-.677.04-2.439.15-4.713 1.87-3.298-2.09-2.594-6.59-1.402-9.02-1.177-.16 4.666 1.46-.386 3.9 3.536-.22 3.164-2.75.95-2.79 4.512.93 1.285 1.51 2.666 1.35 4.248 2.13 2.023 1.69-.145 3.12 2.84-.46.39-.92.795-.98 2.13-4.87-5.676-4.75-3.803-8.69-5.895-.35-4.473 3.85 1.612 3.51-2.859-2.33-2.84-2.4-.444-4.72-3.293 2.31 3.072-.43 6.845-2.17 7.099-.9-.982-.53-2.326-.57-3.546-2.83-3.68-2.37.33-4.77-2.369-.01 1.856 2.57 2.984 2.95 4.74-1.7 3.774-6.43.395-8.5 3.321 1.84 4.397 1.85-1.289 4.07.718.61.751.7 1.657 1.47 2.377-2.84-1.027-2.04 2.39-3.69 4.731 2.11 4.695 3.54 2.608 2.62-1.656 2.88 1.65.26 5.587 2.94 4.749-.2 2.944-2.8 4.631 1.02 8.067l.21.14zm180.88-11.911c-.16-3.935 3.13-1.106 5.05-.961-.22 3.168-2.52 2.293-5.05.961zm144.39-24.77c.8 4.11-3.85 2.48 1.11 6.426-1.12 3.228-4.16 3.172-7.61 2.397-.73-3.764.75-1.785-1.12-7.393 1.29.719 3.25 2.546 3.47 1.421-.07-1.299-1.57-1.939-1.83-3.136 2.35.703 1.45-4.137 5.99.275l-.01.01zm478.06-872.924c-2.09-2.263-5.57-3.137-1.58-3.567 2.45.857 4.54 3.51 1.58 3.567zm-89.71-30.649c-1.34-2.762-2.13-3.312-6.87-6.906 3.85.573 2.08-.922-.02-2.524 3.88.225 4.17.08 8.93 1.049-2.71-2.842-6.44-2.84-9.9-3.544 2.66-1.992 10.54.949 14.37 4.048-6.8.106 3.63 6.462.04 7.747-3.93-.129-1.5-1.968-4.7-2.484 1.62 1.748 1.35 3.772-1.84 2.61l-.01.004zm-65.74 218.732c1.68 3.066-2.41 1.654-1.95 3.776-1.88-3.238-.66-4.023 1.95-3.776zm-65.97 102.504c-2.76-1.673-3.99.77-6.54-2.479 3.73 2.054 3.26-2.235 6.54 2.48zm-68.78 63.031c1.36-.082-.08-3.172 3.7-.664 1.26 2.564-1.51 3.721-3.7.664zm-475.71 272.452c-1.54.705-3.01 1.524-6.03-.687 1.51-.195 3.83-3.238 6.03.687zm59.13 40.425c1.82 3.648-5.35 5.349-6.93-.229 4.06 3.355 2.73-3.384 6.93.229zm-139.768 33.627c-.22-1.486-1.045-2.802-.707-4.471 1.421 1.554 1.673.516 3.03 1.902.113 2.832.02 5.21-2.323 2.569zm244.698 58.946c-3.42 1.838-5.16 2.276-8.78 2.608 1.28-3.819 4.5-4.155 8.78-2.608zm-76.58 30.972c-1.47-.02-4.16 2.384-5.66-.788 1.18-.547 3.69-3.29 5.66.788zm-42.76 8.43c.62 1.173 2.03 7.411-.84 4.084-1.77-1.888-.72-5.855.84-4.084zm-73.32 93.782c-1.36-.821.07 1.39-.22 2.849-3.53-4.937-1.33 3.539-4.86-1.414-.48-4.875 3.81-4.297 5.08-1.435zm68.94 2.878c-1.02.598-.91 3.669-3.4 1.061-.15-4.863 3.02-1.299 3.4-1.061zm71.03 6.551c1.45 3.211-1.26 4.161-4.25 1.488-.2-3.774 2.16-2.359 4.25-1.488zm12.78-3.479c-.44 2.526-4.77 2.433-6.74-1.457 2.77 1.552 2.86-2.302 6.74 1.457zm-165.59-140.791c2.88-.271 4.34-3.636 7.9-2.418-.5 5.014-5.35 5.095-7.9 2.418zm231.12 181.384c1.67 3.696-1.35 4.78-4.32 2.639-.62-4.857 1.59-4.243 4.32-2.639zm-112.2-88.036c-1.46.31-1.52 3.512-4.16 1.425-.02-2.756 2.37-5.64 4.16-1.425zm-125.65-108.132c-1.71-2.289-2.53 2.111-3.85-2.561 1.43.476 2.78-2.603 3.85 2.561zm1.62-3.302c2.85 4.479 1.69.645 3.87 1.629-.01 1.57 2.13 2.464 2.28 3.989-2.13.141-3.01-3.062-3.15.948l-2.31-2.104c-.21-1.493-1.06-2.801-.69-4.456v-.006zm12.36 8.383c-1.11.845-1.03 4.271-3.94 1.202-.54-4.458 1.27-3.76 3.94-1.202zm90.1 64.935c.13-1.678.56-2.73 1.64-2.461-.51 3.277 4.53 10.606.72 9.228-2.57-3.565.39-4.639-2.36-6.767zm-79.02-71.132c-.02 1.246-.04 2.502-.05 3.754l-2.33-2.081c-.64-3.617 1.23-1.871 2.38-1.673zm-46.835-42.774c-3.23-5.511-1.355.913-3.806-.709-2.676-5.258 4.152-4.746 3.806.709zm134.015 109.227c4.37 2.546 3.66-6.302 8.95.737-2.22-4.946.64-5.781 3.28-3.964-3.37 2.438.21 7.909-1.7 12.873-4.87-6.034-1.09 1.257-4.86-4.012-1.44 1.939-3.87 6.976-6.55 3.192.63.416 2.48-1.096.84-2.185-.89 1.438-2.49 1.414-4.89-.231-.34-3.276 1.75-1.601 4.07.509.06-2.869 3-2.48.86-6.925v.006zm94.63 80.106c2.05 4.06-.93 3.931-2.56 3.851-1.65-3.306.32-5.12 2.56-3.851zm-109.16-88.4l3.21 2.681c.22 2.347-.22 3.412-1.63 2.452 1.02-2.233-2.59-2.903-1.58-5.133zm-102.64-97.624c.56 4.057-4.06-3.076-3.09 1.871-2.29-1.905-2.58-5.854-4.57-5.147-.06-6.66 5.03 3.268 7.66 3.282v-.006zm44.93 39.53c.04 2.91.44 6.625-2.38 3.576 1.07-.632-.24-6.23 2.38-3.576zm-30.33-26.203c-3.56-4.217-2.43-11.222.81-8.672 1.49 3.118 1.43 5.644.76 6.32-2.05-4.203-2.27-1.065-1.57 2.352zm134.25 96.496c-2.19-4.137-2.38-.902-1.61 2.517-1.2.139-2.05-.535-3.25-2.6-.85 4.99-6.59.278-7.28 5.585-2.29-1.491-3.46-7.161-3.27-1.722-2.61-1.882-5.94-8.353-2.42-6.737.08 1.227.23 2.435 1.61 3.225-4.3-9.245 1.8-8.216 3.2-11.718 1.35 1.094 2.7 2.192 4.06 3.288 1.41-1.002.59-6.35 4.02-3.417 1.87 5.36-1.36 7.701-4 7.243.98.989.51 1.465.02 1.908 1.47-.238 4.56 2.661 5.68 1.714-.32-5.368-.1-9.605 4.01-6.282-3.3 1.138-.59 4.413-.77 6.986v.01zm-102.36-73.668c-.08-1.869-2.57-2.932-2.34-4.894 2.52 3.384.59-2.541 3.12.846.13 3.117 1.77 5.712 1.57 8.942-.79-.69-1.58-1.376-2.35-2.051v-2.843zm242.7 188.731c1.99 2.171.86 6.622-1.7 3.622.37-1.56-1.2-6.709 1.7-3.622zm-48.75-44.227c1.95 5.857-6.35.613-4.19.74 1.68.284 1.3-3.301 4.19-.74zm-212.62-173.246c.01 1.258.02 2.521.02 3.773-.92-.968-2.2-1.809-2.34-3.024 1.34.898-.99-4.126 2.32-.749zm23.29 13.003c-.08 1.609.8 2.893 2.37 3.94l.02 4.709c-1.48-.248-3.69-2.012-5.47-2.883 1.44-1.062 1.94-4.078 3.07-5.762l.01-.004zm-23.3-14.895c-.41-2.684-1.9-5.019-3.12-7.458 1.53 1.35.96-1.693 3.08.861-.31 6.799 4.11 1.865 5.43 6.687-2.7-1.875-3.68 4.676-6.93-1.452l1.54 1.362zm35.85 23.906c-3.5-5.621-2.71.623-5.48-.986-2.58-7.662 3.51-5.636 5.48.986zm3.94.586c1.79.252 2.99 4.979 3.16 2.726-.26-2.135-2.17-3.694-2.41-5.82 1.05.905 2.1 1.805 3.17 2.719.09 1.56-.09 3.178 1.6 4.192.14 2.418.18 4.686-1.55 3.342-.09-1.224-.24-2.428-1.59-3.24-.63 2.109 1.13 3.395.82 5.398-3.27-2.364-2.12-6.225-3.2-9.317zm21.43 17.352c-.04 3.94-1.86 4.351-5.55.927.5-3.038 2.69-2.633 5.55-.927zm-55.85-44.567c.96-2.612 5.35 1.832 6.15-1.119.1 4.044-1.38 3.596-3.82 4.126-.14-1.227-1.24-2.107-2.33-3.007zm121.25 94.424l.03 3.812c-2.82-2.991-3.89-2.589-3.24 1.198-.8-.641-1.62-1.296-2.44-1.946.55-3.616 3.43-2.671 5.64-3.07l.01.006zm-109.65-90.76c-2.02-1.393-2.32.768-4.65-1.261-.49-3.246 3.24-2.465 4.65 1.261zm219.2 170.389c-1.03 3.127-5.22.463-6.71 2.769-2.07-5.538 3.63-3.699 6.71-2.769zM1034.2 449.094c-1.15-1.82-1.15-4.031-1.61-6.078.68-1.054 1.69-1.375 3.04-1.018 1.6 2.309 2.19 4.948 3.18 7.458-1.05-6.42 1.59-5.209 2.96-6.654 4.41 5.167 5.46 3.747 9.29 5.401.93 4.619-4.79 2.73-7.64 2.545 1.34 1.133 2 2.488 2.36 3.94-2.28.785-3.62-.405-3.88-3.429-1.29 1.545-5.35 6.286-10.73-1.151 2.95 1.637 1-1.21 3.05-1.005l-.02-.009zm39.01 31.368c1.43 4.294 1.85 6.79-1.51 5.236 2.68-.746-1.42-5.01 1.51-5.236zm-28.95-23.383c1.47.88 1.93-.31 3.87 1.54.34 3.27-3.26 2.447-3.87-1.54zm124.69 100.611c1.03.434 1.66.11 1.61-1.551 1.36 1.077 2.74 2.167 4.1 3.238.71-4.864 3.19-1.726 4.8-5.611.04 1.9 2.27 2.976 1.72 5.099-3.25-2.483-3.95-.134-4.86 1.823 2.04 2.425 3.61 5.052 3.38 8.331-1.82-.71-3.2-.539-5.76-2.646-.18-3.137 2.15-1.464 1.56-5.376-2.38-2.976-4.55-.07-6.55-3.307zm3.3 3.569c-.08 2.958-1.81 2.71-4.88-.11.37-2.392 3.08-.243 4.88.11zm-114.84-101.015c2.52 1.049.65 3.556 3.16 4.603-.05 2.316-1.09 2.654-3.08 1.033-1.08-2.136-1.13-5.379-.08-5.642v.006zm245.43 193.125c-.06 2.392-.09 4.849-2.51 2.981-.47-3.339 1.01-3.18 2.51-2.981zm-250.92-198.853c1.47 1.078 1.74 2.558 3.13 3.678.28 2.68-1.03 2.136-3.08.083l-.05-3.761zm64.86 48.762c1.39 1.067 2.5 2.274 3.22 3.583-1.25 1.511-1.88 4.233-5.49 1.086-.58-4.193 2.98-.217 2.27-4.669zm-54.74-43.648c3.58 2.424 3.45-2.688 6.97-.425-2.42-.036-1.52 6.624-5.36 3.685-.04-1.249-1.41-2.063-1.61-3.26zm18.12 14.723l-.06-3.76c1.42 1.735 3.3 3.292 3.99 5.28-2.45-2.797-1.49 1.262-3.93-1.52zm-24.43-22.984c-.57-2.338-4.65-3.498-3.97-6.242 1.87-.703 1.7 3.44 4.71 5.051.03 1.564.06 3.112.08 4.686-1.4-1.771-3.2-.084-3.9-3.412.46-1.174 2.33.515 3.08-.077v-.006zm130.3 104.737c-2.71-1.146.23 3.903-3.23 2.172-.76-3.664 1.26-6.72 3.23-2.172zm-94.17-82.906c-1.15 1.031-1.82 3.021-3.85 2.301-.53-4.367 2.06-2.537 3.85-2.301zm231.23 176.133c-.32 1.614-.2 3.976-2.49 2.096-1.75-3.013-.64-5.056 2.49-2.096zm-211.45-164.267c-1.97-.561-2.59 1.553-5.5-.841-.39-3.547 4.22-1.864 5.5.841zm83.22 67.553c1.54-1.357 4.18-.664 6.45-.658.15 4.073-4.07 7.052-6.45.658zm-134.34-126.433c-.03 3.468.65.889 2.39 2.976.77 3.6-2.55-.959-2.25 1.695 3.51 4.039 3.87 1.822 6.25 3.588 1.05 1.332 5.21 6.281 2.46 5.789-.75-3.325-1.97-.517-3.94-3.403.9 5.354-3.45.229-3.78 3.129-3.1-3.539-4.34-4.23-6.23-3.59.05 1.557 2.18 2.423 2.39 3.91-5.59-3.292-5.34-7.325-7.24-14.554 1.53 1.067 1.58 2.611 2.4 3.921-.03-1.538 2.15 1.355 2.29.174-1.36-1.112-2.44-2.325-3.15-3.667.09-3.045 2.51-.554-.12-4.662.92-.248 1.34-1.436 3.86 1.516.36 1.909-1.09 1.384.08 2.819 1.22-.518 2.85-.191 4.6.362l-.01-.003zm25.25 23.408c-1.53-2.916.26-2.473.64-4.053 3.13 4.539 3.55.381 6.21 1.555.73 5.432 1.65-.585 4.76 3.98-.74 2.38-4.23-.6-5.37 1.006-.54 5.806 5.01 14.763.41 13.255.74-3.704-1.63-14.335-6.65-15.749v.006zm248.88 188.685c1.41 1.665-.04 4.624 2.75 5.682.91-3.373-1.57-5.229-1.99-7.996 1.65 1.346 1.89.223 3.46 1.422 2.18 6.495 1.29 8.581 3.06 14.427-6.54-4.696-6.77-3.926-11.26-4.86.15-3.618.65-8.047 3.98-8.669v-.006zm-130.19-89.527c1.14 3.521.26 4.942-2.32 3.846.36-2.079 1.47-2.737 2.32-3.846zm-157.08-128.564c.12 1.834 2.59 2.906 2.41 4.851-1.29 1.611-4.86-5.578-2.41-4.851zm50.99 37.22l.24 7.579c-1.02-.812-1.06.286-2.36-1.052-2.19-3.442-.81-8.076 2.11-6.524l.01-.003zm110.16 91.618c2.08 1.472 2.55.161 3.37 3.504-1.65-1.248-.96 1.817-3.27-.617-.03-.964-.07-1.917-.1-2.891v.004zm-61.88-53.896c4.12 2.967 1.72 6.738-.65 5.028-.68-3.379 1.32-1.654.65-5.028zm-79.82-63.491c.72-.326 4.01 2.589 3.98 5.25-1.93-1.514-3.81-3.119-3.98-5.25zm141.51 111.649c.06.619.17 1.229.87 1.603-.11-1.7.56-1.968 1.56-1.616.05 3.066-.89 4.355-3.13 3.203.09-1.33-.42-3.749.7-3.19zm-9.41-14.62c-2.83-2.232-1.1 3.931-3.98 1.592-.38-3.148 1.98-5.77 3.98-1.592zm-169.21-142.244c1.07 3.734 2.29 1.041.71-1.174 1.92 1.559 2.47 3.584 3.2 5.548-2.1-.297-.62 1.844-3.72 1.226-.76-2.726-1.1-4.965-.19-5.604v.004zm336.06 243.523c.57 3.338-2.07 1.296-3.31 1.593-.56-3.331.53-3.869 3.31-1.593zm-194.15-142.679c.37 2.704-.99 2.236-3.14.3-.36-2.713 1-2.235 3.14-.3zm73.29 54.596c3.2 1.622 3.46 6.99.18 3.864-.05-2.588-1.49-2.975-.18-3.864zm-64.5-53.274c-.12-4.008 4.23-4.364 7.15.043-4.15-3.806-2.99 2.038-4.63 2.817-.56-2.501-1.24.156-2.52-2.866v.006zm208.88 135.114c-1.2 1.863-2.33 3.828-5.88 1.814.51-2.838 2.87-5.874 5.88-1.814zm-319.73-235.076c-1.42-.973-4.23-.388-5.45-3.761.07-1.63 4.43.767 5.45 3.761zm55.04 33.121c3.42 3.526 3.7 1.229 6.34 3.301.21 3.465-3.62-.523-1.97 5.632-1.97-1.95-1.66.325-3.97-2.3.22-3.421.28-2.491-.39-6.627l-.01-.006zm116.87 87.162c2.86 1.706 4.83 3.795 4.46 6.93-1.57-.074-4.33-4.009-5.8-2.4-1.1-4.24 1.94-1.202 1.34-4.53zm-141.9-123.679c.14 3.301.05 6.182-1.91 5.581-.11-3.268-1.05-8.068 1.91-5.581zm72.18 60.345c.4 2.681-.96 2.214-3.12.269-.39-2.685.96-2.204 3.12-.269zm-28.04-25.601c-.02 3.016-.61 5.017-3.7 2.445.1-2.905 2.18-2.163 3.7-2.445zm17.72 10.384c3.77 2.34 3.35-2.848 6.07-2.416 1.96 6.218-1.72 4.854-4.27 6.506.26 1.325 1.41 2.93-.69 1.246-.76-1.635-1.25-3.375-1.11-5.336zm64.92 42.904c-.02 4.168-2.18 4.606-4.43 4.869-.13-4.424 2.21-4.539 4.43-4.869zm-122.24-98.535c.08 2.336-1.22 2.106-2.06 2.748-.74-2.929-3.06-5.226-3.57-8.238 2.7 1.508 3.15 3.902 5.64 5.487l-.01.003zm-4.12 5.507c-2.76-3.766-2.68-1.63-5.5-3.637 2.07-1.791-.73-11.298 4.12-5.482-1.41 2.099.57 5.369 1.38 9.11v.009zm8.38 1.52c-2.53-2.957-2.75 2.484-4.66-2.032 1.3-.612 2.03-2.269 5.33.804.01 1.597.94 2.831 2.54 3.841-.11 2.534-1.08 3.51-2.81 3.046-.35-1.841 1.92-2.873-.4-5.659zm51.42 35.699c-1.92-1.225-1.31 2.089-3.91-.382-.64-2.877 3.05-2.143 3.91.382zm-4.53 1.812c.07-2.285-3.21-3.228-2.7-5.691 2.43.756 4.82 6.316 2.7 5.691zm17.11 11.554c-.62-3.301.89-2.817 1.21-4.44 2.9 2.936 3.38 1.592 4.79 1.876-.71 2.285.08 2.081.42 5.701-2.39-2.753-3.59-3.774-3.09.341-1.42-1.03-2.56-2.165-3.33-3.468v-.01zm128.1 87.162c.98 3.953-1.59 3.322.51 6.754l-1.73-1.183c0 .553-.04 1.051-.79.368-1.51-3.959-.98-7.221 2-5.935l.01-.004zm119.73 84.234c1.78.598 1.53-1.836 3.51 1.257.93 3.758-3.14 1.693-3.51-1.257zm-310.69-225.731c-.92.766-2.45.407-4.6-1.087-1.43-4.596 4.18-.39 4.6 1.087zm166.57 119.06c-.41 2.658-1.96 3.389-4.65 2.201.4-2.674 1.96-3.389 4.65-2.201zM1126.9 376.395c-1.34-.701.27 1.359.21 2.811-1.96-.088-4.64-4.72-4.56-.12 1.35 2.79 3.27 1.084 4.17 5.114-1.42.648-3.09-.424-5.58-3.603-.5-5.281 2.29-8.796 5.76-4.196v-.006zm120.96 96.35c2.33.359 1.33-4.917 5.49-1.434.43 3.753-1.77 3.047-1.96 5.784-1.91-1.124-3.2-2.533-3.53-4.35zm-70.45-56.846c.89-.063 2.1.433 4.03 2.191 1.08 4.093-3.74.701-4.03-2.191zm-44.55-40.885c.07 1.27.55 2.369 1.04 3.464-.88.04-2.09-.507-3.98-2.302-.08-2.289.91-2.678 2.95-1.165l-.01.003zm52.91 39.249c-.96.754.8 6.26-2.01 3.809-.27-2.916.36-4.252 2.01-3.809zm18.6 8.663c.75 4.44-2.39.106-.36 5.066-1.45-1.015-2.61-2.14-3.42-3.438-.46-3.517.79-4.049 3.77-1.624l.01-.004zm-9.19 2.001c3.4 2.651 1.2-4.427 5.41-.376 1.35 5.074-3.09 4.349-5.41.376zm-51.83-42.462c1.32 4.498-1.7 1.265-3.85-.41-.52-3.072 2.51.17 3.85.41zm49.48 32.702c.84 3.609-1.45 1.812-2.11 2.836-2.09-3.622-.61-5.166 2.11-2.836zm.84-8.216c0 4.161-.7 4.736 1.56 9.124-1.32.654-2.45-2.229-4.22-4.073-.65-3.267.87-2.793 1.18-4.406-.99-.612-1.73.269-2.49-1.871 1.21-2.763 4.02-.19 7.14 1.824.36 1.467 1.34 2.689 1.15 4.393-2.58-1.173-2.7-3.405-4.31-4.995l-.01.004zm10.64 6.193c-.7 4.165-3.45 4.829-6.6 4.802-3.96-7.55 2.57-6.189 6.6-4.802zm-75.82-54.732c-1.05 2.139-3.94.954-5.94 1.363.87-2.425 2.21-4.017 5.94-1.363zm24.28 19.051c1.06 2.147 3.2 6.188.41 4.717-.51-.925-2.29-5.942-.41-4.717zm-12.85-17.041c3.05.995.65 4.296 2.77 5.678 1.88 1.199.08-4.089 2.9-1.241.15 4.488-2.69 3.741-4.91 4.061-1.47-3.643 1.35-3.003-.76-8.498zm72.9 60.819c-.4-5.903 6.49.147 8.3 5.238-3-2.593-3.68-4.245-8.3-5.238zm-5.59-10.321c.14 1.568.28 3.147.41 4.714-1-.886-2.36-1.592-2.59-2.801 2.24 1.943-1.24-5.871 2.17-1.909l.01-.004zm-36.77-31.235c2.14 1.374 2.31 3.587 2.81 5.657-1.04-.745-1.02.35-2.39-.934a581.88 581.88 0 00-.43-4.719l.01-.004zm-16.61-15.395c2.47 2.535 4.09 5.418 4.58 8.79-3.34-2.084-5.72-7.829-4.58-8.79zm46.45 38.832c-1.02-4.089 3.44-.549 4.83 1.833.3 4.419-1.77-.148-4.83-1.833zm-40.73-42.266c1.44 1.175 2.53 1.757 3.19 1.575-.67 2.666-2.9-.382-1.01 5.33-3.43-4.683-2.33-.147-5.54-2.517-.13-3.626 3.63-.507 3.36-4.382v-.006zm14.78 3.483c-5.48-4.416-5.53 4.601-9.96-.65 2.35-.56 5.27-7.936 9.96.65zm-2.2.936c.2 1.881 2.36 2.901 2.02 5.009-1.09-.545-1.45.147-3.21-1.565.95-1.826-1.26-4.193 1.19-3.438v-.006zm11.41-7.847c2.61 2.594 1.3-1.412 3.9 1.166-.04 2.013-.39 3.464-1.96 2.9-.34-1.504-1.52-2.614-1.94-4.066zm63.85 36.032c-1.05.984-2.67 6.274-5.49-.414 3.15 2.781 3.56-2.932 5.49.414zm88.41 61.098c3.1 1.173 4 6.976 1.41 5.353.1-2.058-1.83-3.12-1.41-5.353zm-91.9-64.443c.54 2.684-1.49 1.185-3.06.432.13-1.854-3.17-6.985-1.47-6.268.95 2.205 3.14 3.836 4.53 5.836zm-3.16-7.462c3.22 1.287 4.98 7.572 2.22 5.918-1.08-1.809-2.6-3.427-2.22-5.918zm-37.21-29.468c3.79 3.94 1.36-2.352 4.67.819-.23 3.447-2.23 3.964-4.02 4.834l-.65-5.649v-.004zm33.4 23.294l.43 3.757-2.54-1.811c-1.07-3.553.97-2.008 2.11-1.946zm16.19 12.34c-.53-4.797 3.26 1.818 5.6 1.315-.41 1.924-3.64 1.623-5.6-1.315zm7.19 1.547l3.39 2.35c.96 3.144-1.01 5.486-2.93 1.469 2.07 1.298-.14-3.057-.46-3.823v.004zm86.74 56.504c-.58.94-2.67-.466-4.15-.942 4.72-3.66 9.38-7.335 16.86-6.815 2.16 6.391-4.77-1.054-3.52 3.94 2.18 1.273 2.51-.096 3.62 3.191-1.63.955-3.08-2.699-6.11-3.896.87 4.703-4.53-.201-3.42 4.887 1.46.17 1.9-1.235 5.01 1.446.65 2.563-1.33 1.087-.28 4.258-2.13-.425-3.57-6.104-4.52-3.805.04 2.336 3.51 2.954 3.09 5.529-.44.9-1.68.558-3.3-.364-1.4-2.336-1.32-5.403-3.29-7.432l.01.003zm-100.62-68.849c4.39 3.503 3.83-.976 7.03.604 1 3.593 3.89 5.531 2.5 7.841-3.02-1.188-2.97-3.903-4.56-5.799-.5 1.485-2.26.968-1.89 3.874-2.6-1.451-2.94-3.943-3.08-6.52zm-33.16-26.364c.34 3.086 1.13 6.914-1.72 4.776.45-1.8-.99-6.681 1.72-4.776zm66.23 49.296l.45 3.816c-.85-.581-1.71-1.17-2.55-1.749-.54-2.645-.18-3.883 2.1-2.067zm-.64-23.884c.2-.965.84-1.191 2.31-.158-.08 5.312-7.65-3.613-9.88-4.159.2 1.57.41 3.155.62 4.737-5.72-3.182-7.97-.961-9.85 1.887 2.06 3.926 2.87 7.419 2.63 8.78-3.94-5.865-.06 2.761-3.88-.075-.26-5.273.07-8.59-1.78-14.269 6.65 5.617 6.04-4.002 8.49-6.239.64 1.705-.36 4.211 1.46 5.324-.06-2.861 1.82-2.679 1.58-5.821-.99-.541-1.71.366-2.56-1.749 3 1.91 3.01-4.742 6.2-.064-3.11-1.163-2.08 6.061 1.97 9.108-3.37-5.641 3.39-4.951 5.11-2.555-1.45.519-6.84.233-2.42 5.262v-.009zm-3.43-8.383c-1.12-1.686-.89-4.565.1-5.088.9 2.757 2.05-.193 4.15 1.962.17 3.502-2.32 2.877-4.25 3.126zm-61.21-15.476c1.18-1.868 3.31-2.18 5.92-1.73-.75 2.335-2.7 5.835-5.92 1.73zm31.65 20.096c-1.27-.527-.37 2.449-3.16-.515-1.94-4.257 2.58-1.8 3.16.515zm8.33-1.122c.47 2.582-1.53 5.075-3.74.866 1.88.716 1.86-1.582 3.74-.866zm-31.28-22.99c1.43 2.294.66 4.91-1.95 2.887-.76-3.245.57-3.096 1.95-2.887zm142.47 89.953c1.97 3.563-1.88 1.78 1.62 6.319-3.29-1.105-4.26-7.949-1.62-6.319zm3.63-2.997c2.23 3.337-.35 3.372 1 7.683-.88-.551-1.77-1.117-2.64-1.671-.24-3.222-1.27-7.565 1.64-6.012zm-104.52-68.062c-.5 1.046-1.43 5.234-3.77.854 1.63.312 1.27-2.525 3.77-.854zm-21.91-20.401c.58 2.665.24 3.867-2.02 2.033-.56-2.653-.22-3.855 2.02-2.033zm42.24 21.365c1.18-.172 1.73-1.295 2.92-1.455.52 3.228 2.38 6.15.01 6.018-.32-1.839-2.92-2.562-2.93-4.563zm12.13 3.017c1.51 1.075 2.66 1.59 3.33 1.363.09.636.17 1.276.26 1.903.52.394 1.05.82.98 1.513-4.3-2.445 1.63 3.536 1.5 5.3-1.59-.685-1.21 1.655-4.06-.982.08-3.419-1.55-5.954-2-9.091l-.01-.006zm-13.27-11.508c1.28 1.025 3.11 1.799 3.56 3.258-2.62-.567-1.45 4.734-6.1 1.018.32-3.329 3.54-.499 2.54-4.276zm266.4 160.305c2.83 1.091 3.26 3.673 3.48 6.378-1.28-.723-1.96-.625-2.63-.487-1.45-1.929-1.93-5.302-.86-5.887l.01-.004zm-165.64-96.111c.18-2.266 1.9-2.252 4.78-.529.71 3.366 4.5 9.1.17 7.083-.96-3.656-1.89-6.582-4.95-6.554zm-77.64-54.77c-1.33.811-3.37-1.624-4.44-3.789-.13 5.004-5.67 5.72-10.83.523 5.37 1.923 7.54-2.063 7.7-6.027.88 2.285 2.67 4.051 4.72 5.707-2.03-3.347-2.07-3.675-.68-4.761 1.63.816 1.88 2.399 2.84 3.596-1.96-4.491-.08-1.745 1.17-2.681-3.11-2.567-1.34-4.455 1.17-2.662 1.75 2.588-.29 2.688.97 6.659-3.07.492-4.7-1.633-2.62 3.435zm-69.78-51.747c3.89 2.237.52-5.761 1.31-6.686 4.03 3.167 1.5 3.741 3.48 8.339-2.68-2.72-1.2 1.05-1.15 2.587-1.89-1.087-3.2-2.444-3.63-4.238l-.01-.002zm60.08 38.468c2.45.536 4.04-.258 6.17-.221-.02 2.18-.55 3.584-1.74 4.008-.12-1.536-3.25 1.053-4.43-3.787zm-39.43-32.581c1.35 2.006 2.31 6.643-.03 5.046.26-1.311-1.82-6.227.03-5.046zm-11.99-14.179c1.04 3.288-1.05 1.721-.03 5.032 2.11 1.354 2.39.044 3.53 3.28-1.72-.434-3.61 2.595-6.37-1.883.06-2.977-1.05-7.864 2.86-6.426l.01-.003zm65.06 49.728c3.02 3.245 1.7-3.704 4.03.92-.45 1.384-2.05 4.268-4.03-.92zm-26.04-24.025c-.68 1.877-2.42 2.15-3.27 3.786-1.27-2.173.69-7.483 3.27-3.786zm-31.53-21.376c.16 1.267.71 2.343 1.27 3.408-1.84-1.084-3.95 1.073-5.66-2.229 2.72 1.57.96-3.806 4.38-1.175l.01-.004zm71.72 35.81c-.71 3.432-4.3 5.344-6.64 7.635 1.71 1.475 3.78 2.768 3.89 5.096-4.72-6.145-2.57-.732-6.64-2.6-.66-3.689.38-4.298-3.74-9.291 7.97 7.052 7.53-2.174 13.13-.84zm250.04 154.173c-2.14-.332-.17 4.92-3.9 2.445.2-1.835 1.55-6.055 3.9-2.445zm-164.6-95.17c2.4 1.942 3.15 1.529 2.22-1.293 4.65 3.691 4.6 11.33.75 10.024-.01-4.414-.29-4.566-2.97-8.734v.003zm-149.07-96.833c-.92 2.908-4.35 1.983-6.38 3.204-.15-.947-.29-1.882-.43-2.817 3.09 1.133 3.76-1.449 6.82-.381l-.01-.006zm86.61 59.333c-1.65.54-4.06 3.791-7.16-.273 2.74 1.081 3.32-4.855 7.16.273zm-13.83-13.079c4.15 2.238 4.14-1.668 7.85-.106.29 4.582-4.99 4.829-7.41 2.948 1.31.623.28-1.684-.44-2.842zm-70.97-49.243c.24 1.551 2.43 2.106 2.83 3.594-1.95-1.058-1.05 2.229-3.79-.036-.49-2.429-.88-4.683.95-3.564l.01.006zm8.14-1.264c.84 3.663-.53 3.974-2.5 3.374.63-1.429.15-4.538 2.5-3.374zm56.57 40.526c-.3-4.575 2.62-1.066 6.54 1.649.18 1.596.65 3.061 1.44 4.316-.57-.366-1.14-.732-1.73-1.109-1.82-4.021-3.71-4.752-6.25-4.85v-.006zm-67.08-49.277c2.46-.084 2.08-4.438 6.58-1.431-1.34 1.688 2.53 6.315 1.22 7.531-2.95-.582-4.59-6.995-5.41-5.326.66 2.044 2.7 3.345 2.46 5.859-2.49-1.737-3.5-4.275-4.85-6.63v-.003zm15.41 6.151c.9 1.576 1.54 3.284 1.62 5.287-3.36-3.137-2.07.702-4.82-1.547-.1-.638-.21-1.258-.3-1.875 3.02 2.392 1.27-1.667 3.5-1.865zm64.95 37.996c-1.71.881-1.55 10.514-5.75 3.162 4.13 2.182 1.44-5.609 5.75-3.162zm18.96 5.856c.09 2.046-.21 3.535-1.82 3.133-1.56-2.222-.92-4.969 1.82-3.133zm-5.35-8.41c-3.33-.394-4.78 8.424-10.05.536 4.9 2.542 5.91-4.344 10.05-.536zm25.57 11.43c.93 3.238-.43 3.215-1.83 3.14-1.67-2.361-.33-4.103 1.83-3.14zm-10.36-9.694c6.46 5.129 4.85-1.225 8.72.213 2.07 5.278-4.61 3.809-7.02 5.062-.03-2.063-1.96-3.036-1.69-5.269l-.01-.006zm-1.37-3.383c4.93 2.788-1.67-6.929 3.07-4.892-.13 3.661.31 2.402 1.88 6.224-.9.823-3.09 3.432-4.95-1.338v.006zm13.23-5.47c1.07 3.624.11 4.415-1.65 4.067-1.89-2.742-2.17-7.207 1.65-4.067zm-62.9-42.238c1.62 4.648-1.15 2.988-2.43 3.471.6-1.459.04-4.572 2.43-3.471zm-2.77-2.59c.88 2.701-2.08 3.402-3.81.076 2.22 1.34.18-3.451 3.81-.076zm10.92 5.242c.46 1.825 3.05 2.425 3.83 4.068.7 2.62.42 3.859-1.93 2.12.2-1.946-4.53-6.281-1.89-6.198l-.01.01zm-11.29-15.435c.68 1.284 1.09 4.521 3.66 7.302-.26-1.989 1.8-.642 3.98.844-.32 3.002 1.09 8.491-2.6 6.677.1-5.104-10.72-16.429-5.04-14.823zm88.21 59.732c1.71 3.613-1.51 3.928-3.02.769 1.63.613 0-3.285 3.02-.769zm-75.18-51.516c.71 2.613.44 3.842-1.9 2.125-.71-2.607-.43-3.836 1.9-2.125zm59.24 37.897c1.14-1.701 3.44-4.672 6.88-.994-.52-3.222 4.83-.694 1.18-6.036 1.19.697 2.38 1.388 3.55 2.077 1.12 3.331-1.09 1.959.93 4.753-3.38-.62-4.45-.025-1.39 5.077-2.58-.541-2.44-2.76-3.91-3.996l.9 4.757c-4.81-3.157-4.67-6.425-8.13-5.645l-.01.007zm15.87-3.303c5.16 3.152 3.17 8.941-.32 6.546-.48-1.483-1.77-2.45-2.33-3.887 1.92-1.91 5.51 4.297 2.65-2.655v-.004zm.11-7.496c3.71 1.623 3.92 5.39 4.86 8.707-1.39-.73-.24 2.002-2.31.348-2.32-5.661.57-3.147-2.56-9.051l.01-.004zm21.25 11.429c-.05 2.017.19 4.43-2.65 2.678-.83-3.212.16-3.948 2.65-2.678zm237.6 98.831c-.31-2.1 1.25-5.608 3.88-1.783-2.39-.978-1.45 2.637.11 4.456-1.63-.665-2.98-1.536-3.99-2.677v.004zm-227.34-122.337c5.28 2.955 4.08 11.856-.39 5.642 2.93.891-1.03-3.941.39-5.642zm232.06 116.539c.83-2.86 2.58-8.339 7.78-3.579-4.39-.07 1.84 4.377 2.45 7.238-3.52-1.498-5.15-4.462-7.51-6.855 1.68 4.254.61 7.11-2.72 3.19v.006zm10.82-9.24c-1.49.136-.77 2.886-2.95 2.203-3.88-4.163 1.4-6.63 2.95-2.203zm-288.42-165.256c.22 2.483-.9 3.205-3.37 2.145-1.37-4.011 1.03-3.021 3.37-2.145zm2.71-8.231c-3.45-6.18 1.47-1.193 2.68-1.726-3.79-3.238-4.23-6.992-5.32-9.511 4.05 2.072 2.84 7.522 6.87 9.579-.56-1.411-1.68-2.506-1.76-4.251.45-.367 4.47.747 5.35 3.026-3.81-1.232-.57 16.716-7.39 4.738-1.38.829-1.98 6.096-5.77 1.582-1.37-3.32 1.77-6.599 5.35-3.45l-.01.013zm-3.52-8.494c.32 3.655-1.64 4.367-3.35 5.378.05-3.195-.15-6.696 3.35-5.378zm303.93 152.633c3.09.517 1.18-8.373 5.97-3.575-2.01.946-.91 8.372-5.97 3.575zm-300.15-159.374c1.36.909 3.2 1.538 3.79 2.951-3.38-1.15-3.52.037-1.34 4.083-4.2-3.404-2.62-4.925-2.45-7.038v.004zm12.49 3.824c2.91 2.233.31-2.611 4.01.629.29 2.19-2.74 2.931-4.01-.629zm-14.96-14.066c1.96.883 3.4 2.115 4.01 3.876-1.01-.441-2.57-1.602-2.44-.581-.03.612.43 1.833-.45 1.355-.37-1.553-.74-3.091-1.12-4.644v-.006zm319.34 154.021c.63 1.43 1.83 2.422 1.93 4.258-3.26-2.088-2.58.307-4.31-.049-.6-2.988-.77-5.493 2.39-4.212l-.01.003zm-293.48-149.195c.9 1.56 2.7.578 3.33 1.023-.55-1.46-1.87-2.394-2.5-3.788 1.23-1.793 4.92 1.702 6.07 5.721-2.27.565-3.32 2.648-6.39 2.169.04-2.429-1.09-4.709-.52-5.131l.01.006zm304.75 149.507c-1.27-.518-2.56-1.044-3.84-1.574-1.69-4.03 3.67-1.837 3.84 1.574zm-293.95-152.508c.04-1.846.6-3.051 3.52-1.314.94 3.081-.47 3.236-2.38 2.741-.2-.598-.43-1.191-1.14-1.427zm300.01 129.002c1.72.3 1.87-1.15 4.3-.067.21 1.248 4.7 4.46 1.99 4.27-.88-2.38-3.2-3.286-2.91-1.144a12.43 12.43 0 013.67 4.055c-1.91-.73-.54 2.17-3.35.437-.06-3.51-3.66-4.063-3.7-7.557v.006zm-295.85-142.808c2.56.405 3.48-4.485 6.64-1.25-1.81-.34-1.4 2.047-2.39 2.716 1.76 1.12 1.72.03 3.37 1.002.12 1.895-.55 3.796 1.71 6.519-3.42-2.79-6.49-5.813-9.32-8.985l-.01-.002zm302.93 136.863c.9 2.005 2.72 3.229 3.21 5.588-2.55-1.181-6.73-6.148-3.21-5.588zm-293.17-138.062c4.1 1.951 6.46 5.084 8.45 8.472-1.25-.694-1.87-.609-2.47-.5-1.38-3.081-5.52-4.258-5.99-7.969l.01-.003zm299.41 138.733c.96 2.633.77 4.035-1.87 2.758-.94-2.634-.76-4.033 1.87-2.758zm-296.85-143.756c-1.12 1.973-1.94 4.318-5.28 3.579 1.24-2.044.55-3.606 1.9-4.573.38.818 1.05 1.48 2.06 1.88-.2-1.074-.33-2.048 1.32-.892v.006zm4.93 1.006c.59 1.433 2.27 2.103 3.21 3.282.6 4.278-1.76 4.972-5.03 4.543-.49-2.595-2.8-3.936-3.28-6.531 2.28.286 2.63-1.803 5.11-1.288l-.01-.006zm296.47 130.632c.57 3.079 1.47 5.874 3.77 7.48-2.67-.85-1.8 2.15-3.8 2.025-2.02-6.037-3.4-1.727-4.91-5.339 3.98 1.145 2.24-3.937 4.95-4.16l-.01-.006zm-300.52-139.917c1.66.698 2.29 2.096 3.88 2.835-.25-.928-1.03-1.481-1.41-2.329 2.76.629 3.33 2.843 3.73 5.128-1.04-.411-2.62-1.51-2.47-.5 1.09.703 1.38 1.973 1.66 3.252-.91-.476-1.81-.95-2.73-1.425-.78-4.289-.32-3.163-2.64-6.953l-.02-.008zm12.64 6.562c-.38-2.531 2.26-1.425 3.23-2.341 1.82 4.265.3 6.433-3.23 2.341zm2.44-10.726c.51-1.25.07-3.625 2.31-2.807 1.94 3.949-1.06 2.03-1.4 3.267.76.567 1.79.937 2.07 1.864-1.24-.608-2.11-1.465-2.98-2.324zm11.51-.513c-2.31-.681-1.16 2.735-4.4.953-.68-2.497 1.74-4.459 4.4-.953zm.53 1.858c.65.158.84-.241.38-1.398 1.99.779 3.49 1.953 4.17 3.698-1.24-.441-1.11.749-2.22.463-.35-1.22-1.82-1.64-2.33-2.763zm8.02-4.721c1.17 4.656-.89 5.538-4 5.156-.89-4.345 3.43-2.521 4-5.156zm-5.51-8.312c3.49 5.279.92 6.132-1.25 6.51-1.22-4.11-1.72-7.342 1.25-6.51zm15.77 3.1c1.33.911 2.14 2.187 3.93 2.73.81 3.601.58 5.997-3.62 3.772 1.42-1.54 1.25-4.63-.31-6.502zm9.78-24.558c.96 2.499 1.19-.507 3.67 1.755 1.36 2.612-2.71 2.053-4.01-.331 1.65.587-.99-1.786.34-1.424zm113.53-114.567c1.77.219 1.75-1.203 4.9.29 1.94 3.9 1.24 5.383.65 6.956l-2.83-1.031c.08-2.923.41-2.143-2.71-6.218l-.01.003zm12.51-5.912c-4.39-1.718-.33 5.007-5.81-.575 2.29.803 2.45-2.942 5.81.575zm310.42 29.526c2.82 7.486 4.03-3.11 8.85 6.165-4.1-.783-4.09-1.372-5.58.337-1.85-1.778-6.71-6.092-3.26-6.496l-.01-.006zm6.15 10.313c-1.13.02-2.94-.443-2.58.606 1.14 1.656 6.98 4.482 4.74 5.756-1.93-.887-2.96-3.097-5.43-3.235.81-2.643-5.53-6.693-4.56-9.22 3.02 1.405 6.27 2.413 7.83 6.093zM1644.99-7.359c-1.2-2.533.54-2.548 1.6-3.152 2.4 1.993.63 2.65 3.05 6.1-2.26-.173-2.76-2.331-4.65-2.948zm294.41 56.188c3.23.508 5.22 2.92 7.93 4.26-2.21.07 1.64 4.32-2.14 3.327-3.06-3.771-2.39-3.687-5.79-7.587zm-286.99-60.432c-2.58.29 2.37 3.796-.66 3.45-1.82-1.053-3.65-7.692.66-3.45zm288.54 59.71c-1.21-2.02-.69-2.846 1.59-2.484 1.55 1.682 2.6 2.954 1.9 3.685-.72-1.09-2.12-1.144-3.49-1.2zm-242.04-162.834c-3.13-.469.88 3.844-1.58 3.824-3.33-3.602-2.22-6.461 1.58-3.824zm1.85-5.85c-1.31 1.346-.48 4.1-3.9 4.045-1.96-3.509-1.09-5.106 3.9-4.045zm-2.28-4.571l2.17 3.177c-.97-.193-1.91-.372-2.87-.562-2.57-2.714-.23-2.194.7-2.615zm181.19-47.398c3.2-.125 5.53 2.012 7.73 4.463 1.36 2.907.18 5.795 2.45 10.407-1.26-.077-2.7.216-3.59-.69-3.05-3.822-5.19-9.798-6.59-14.19v.01zm3.54-11.383c1.89.004 3.67.298 5.18 1.28-.2 3.122 1.61 7.146 0 9.662-2.26-3.911-2.9-7.083-5.17-10.945l-.01.003zm-167.59-7.093c2.98 1.877 4.97 5.96 2.62 6.259-3.49-3.513-2.37-4.505-2.62-6.259zm164.28-8.548c3.06 5.292 3.58 9.066 9.79 13.629l-3.88.259c-.85-3.243-10.63-10.518-5.9-13.882l-.01-.006zm-178.52-25.789c-1.19-1.202-1.78-2.113-1.63-2.659 4.51.238 6.95 4.579 11.78 4.169.13 1.453 3.31 4.4-.87 3.758 1.08-1.967-4.11-5.112-9.28-5.268zm190.65-4.249c2.59-.467 4.35 1.721 6.6 2.38-1.55.541.22 2.293-3.43 2.061-1.65-1.702-.39-2.34-3.17-4.441zm-72.01-8.579c1.32-.693-4.28-3.6-5.82-4.746 2.16-.971 3.39.924 5.17 1.122-.32-.552-.01-.838 1.21-.809.29 2.206-.95 3.567 4.85 4.81-.24.958-3.29.531-5.42-.38l.01.003zm-83.05-16.503c-2.7-.225 1.87 2.521-1.77 1.904-3.34-2.042-1.16-3.653 1.77-1.904zm3.54-9.014c2.03 2.636 4 5.259.7 5.828.37-1.743-4.04-5.281-.7-5.828zm3.95-5.877c1.32 1.477 2.7 2.992-.94 2.603-1.68-1.623-1.37-2.484.94-2.603zm-16.69-5.503c2.94.147 3.05-.19.45-1.26 3.2-.452 5.68 3.658 2.63 3.127-.96-.87-2.01-1.369-3.08-1.867zm46.94-50.194c3.09.765 4.78 3.077 4.44 4.082-2.27-.585-7.09-3.672-4.44-4.082z" fill="rgba(49,49,49,1)"/></g></g><defs><clipPath id="prefix__clip0_58_843"><path fill="#fff" d="M0 0h1920v954H0z"/></clipPath><clipPath id="prefix__clip1_58_843"><path fill="#fff" transform="rotate(-30 788.145 -1314.71)" d="M0 0h1234.03v706.511H0z"/></clipPath></defs></svg>